<svg width="700" height="114" viewBox="0 0 700 114" fill="none" xmlns="http://www.w3.org/2000/svg">
    <path d="M55.3021 40.3004C56.1126 40.3004 56.8898 40.6224 57.4628 41.1954C58.0359 41.7685 58.3578 42.5457 58.3578 43.3561C58.3578 44.1665 58.0359 44.9438 57.4628 45.5168C56.8898 46.0899 56.1126 46.4118 55.3021 46.4118C54.4917 46.4118 53.7145 46.0899 53.1414 45.5168C52.5684 44.9438 52.2464 44.1665 52.2464 43.3561C52.2464 42.5457 52.5684 41.7685 53.1414 41.1954C53.7145 40.6224 54.4917 40.3004 55.3021 40.3004ZM17.6151 41.319C18.4255 41.319 19.2028 41.6409 19.7758 42.214C20.3489 42.787 20.6708 43.5643 20.6708 44.3747V47.4304H23.7265C24.5369 47.4304 25.3142 47.7523 25.8872 48.3254C26.4603 48.8985 26.7822 49.6757 26.7822 50.4861C26.7822 51.2965 26.4603 52.0738 25.8872 52.6468C25.3142 53.2199 24.5369 53.5418 23.7265 53.5418H20.6708V56.5975C20.6708 57.4079 20.3489 58.1852 19.7758 58.7582C19.2028 59.3313 18.4255 59.6532 17.6151 59.6532C16.8047 59.6532 16.0275 59.3313 15.4544 58.7582C14.8813 58.1852 14.5594 57.4079 14.5594 56.5975V53.5418H11.5037C10.6933 53.5418 9.91604 53.2199 9.34299 52.6468C8.76993 52.0738 8.44799 51.2965 8.44799 50.4861C8.44799 49.6757 8.76993 48.8985 9.34299 48.3254C9.91604 47.7523 10.6933 47.4304 11.5037 47.4304H14.5594V44.3747C14.5594 43.5643 14.8813 42.787 15.4544 42.214C16.0275 41.6409 16.8047 41.319 17.6151 41.319ZM64.4692 49.4675C64.4692 50.278 64.1473 51.0552 63.5743 51.6282C63.0012 52.2013 62.224 52.5232 61.4135 52.5232C60.6031 52.5232 59.8259 52.2013 59.2528 51.6282C58.6798 51.0552 58.3578 50.278 58.3578 49.4675C58.3578 48.6571 58.6798 47.8799 59.2528 47.3068C59.8259 46.7338 60.6031 46.4118 61.4135 46.4118C62.224 46.4118 63.0012 46.7338 63.5743 47.3068C64.1473 47.8799 64.4692 48.6571 64.4692 49.4675ZM49.1907 52.5232C50.0011 52.5232 50.7784 52.2013 51.3514 51.6282C51.9245 51.0552 52.2464 50.278 52.2464 49.4675C52.2464 48.6571 51.9245 47.8799 51.3514 47.3068C50.7784 46.7338 50.0011 46.4118 49.1907 46.4118C48.3803 46.4118 47.6031 46.7338 47.03 47.3068C46.457 47.8799 46.135 48.6571 46.135 49.4675C46.135 50.278 46.457 51.0552 47.03 51.6282C47.6031 52.2013 48.3803 52.5232 49.1907 52.5232ZM58.3578 55.5789C58.3578 54.7685 58.0359 53.9913 57.4628 53.4182C56.8898 52.8452 56.1126 52.5232 55.3021 52.5232C54.4917 52.5232 53.7145 52.8452 53.1414 53.4182C52.5684 53.9913 52.2464 54.7685 52.2464 55.5789C52.2464 56.3894 52.5684 57.1666 53.1414 57.7397C53.7145 58.3127 54.4917 58.6346 55.3021 58.6346C56.1126 58.6346 56.8898 58.3127 57.4628 57.7397C58.0359 57.1666 58.3578 56.3894 58.3578 55.5789Z" fill="black"/>
    <path d="M1.86437 83.8296C1.17759 83.5013 0.558139 83.1052 0 82.6516V104.867C0 106.582 0.541876 108.17 1.46375 109.47C3.7641 112.969 8.42427 114.106 12.0974 111.986L60.0164 84.3198C59.3242 84.0445 58.6951 83.7102 58.126 83.3366C56.4637 82.2447 54.997 80.8269 53.5302 79.4091L53.5084 79.3879C51.7026 77.643 49.8994 75.9006 47.7244 74.7685C45.345 73.538 42.7049 72.8943 40.024 72.8943H31.8795C29.1994 72.8945 26.5584 73.5386 24.1792 74.7725C21.9954 75.9052 20.1864 77.6571 18.3774 79.4091C16.9107 80.8269 15.4439 82.2447 13.7735 83.3366C11.9175 84.5337 9.74809 85.1533 7.53983 85.1171C5.57517 85.1211 3.63502 84.6809 1.86437 83.8296Z" fill="#002647"/>
    <path fill-rule="evenodd" clip-rule="evenodd" d="M0 82.6516C0.558139 83.1052 1.17759 83.5013 1.86437 83.8296C3.63502 84.6809 5.57517 85.1211 7.53983 85.1171C9.74809 85.1533 11.9175 84.5337 13.7735 83.3366C15.4439 82.2447 16.9107 80.8269 18.3774 79.4091C20.1864 77.6571 21.9954 75.9052 24.1792 74.7725C26.5584 73.5386 29.1994 72.8945 31.8795 72.8943H40.024C42.7049 72.8943 45.345 73.538 47.7244 74.7685C49.8994 75.9006 51.7026 77.643 53.5084 79.3879L53.5302 79.4091C54.997 80.8269 56.4637 82.2447 58.126 83.3366C58.6951 83.7102 59.3242 84.0445 60.0164 84.3198L76.0551 75.0598C76.4663 73.1639 76.6393 71.1674 76.6721 69.2397C76.9392 53.5095 75.0324 42.6256 71.6424 35.4467L51.9313 24.0665C48.8785 24.3289 45.9408 25.3997 43.426 27.181L41.3808 28.6233C39.7926 29.7468 37.8951 30.3502 35.9497 30.3502C34.0044 30.3502 32.1069 29.7468 30.5187 28.6233L28.4735 27.1769C25.5547 25.1116 22.067 24.0027 18.4915 24.003H15.998C14.3479 24.003 12.6856 24.1049 11.1333 24.6549C6.6343 26.2521 2.78616 29.8117 0 36.013V82.6516ZM57.4628 41.1954C56.8898 40.6224 56.1126 40.3004 55.3021 40.3004C54.4917 40.3004 53.7145 40.6224 53.1414 41.1954C52.5684 41.7685 52.2464 42.5457 52.2464 43.3561C52.2464 44.1665 52.5684 44.9438 53.1414 45.5168C53.7145 46.0899 54.4917 46.4118 55.3021 46.4118C56.1126 46.4118 56.8898 46.0899 57.4628 45.5168C58.0359 44.9438 58.3578 44.1665 58.3578 43.3561C58.3578 42.5457 58.0359 41.7685 57.4628 41.1954ZM19.7758 42.214C19.2028 41.6409 18.4255 41.319 17.6151 41.319C16.8047 41.319 16.0275 41.6409 15.4544 42.214C14.8813 42.787 14.5594 43.5643 14.5594 44.3747V47.4304H11.5037C10.6933 47.4304 9.91604 47.7523 9.34299 48.3254C8.76993 48.8985 8.44799 49.6757 8.44799 50.4861C8.44799 51.2965 8.76993 52.0738 9.34299 52.6468C9.91604 53.2199 10.6933 53.5418 11.5037 53.5418H14.5594V56.5975C14.5594 57.4079 14.8813 58.1852 15.4544 58.7582C16.0275 59.3313 16.8047 59.6532 17.6151 59.6532C18.4255 59.6532 19.2028 59.3313 19.7758 58.7582C20.3489 58.1852 20.6708 57.4079 20.6708 56.5975V53.5418H23.7265C24.5369 53.5418 25.3142 53.2199 25.8872 52.6468C26.4603 52.0738 26.7822 51.2965 26.7822 50.4861C26.7822 49.6757 26.4603 48.8985 25.8872 48.3254C25.3142 47.7523 24.5369 47.4304 23.7265 47.4304H20.6708V44.3747C20.6708 43.5643 20.3489 42.787 19.7758 42.214ZM63.5743 51.6282C64.1473 51.0552 64.4692 50.278 64.4692 49.4675C64.4692 48.6571 64.1473 47.8799 63.5743 47.3068C63.0012 46.7338 62.224 46.4118 61.4135 46.4118C60.6031 46.4118 59.8259 46.7338 59.2528 47.3068C58.6798 47.8799 58.3578 48.6571 58.3578 49.4675C58.3578 50.278 58.6798 51.0552 59.2528 51.6282C59.8259 52.2013 60.6031 52.5232 61.4135 52.5232C62.224 52.5232 63.0012 52.2013 63.5743 51.6282ZM51.3514 51.6282C50.7784 52.2013 50.0011 52.5232 49.1907 52.5232C48.3803 52.5232 47.6031 52.2013 47.03 51.6282C46.457 51.0552 46.135 50.278 46.135 49.4675C46.135 48.6571 46.457 47.8799 47.03 47.3068C47.6031 46.7338 48.3803 46.4118 49.1907 46.4118C50.0011 46.4118 50.7784 46.7338 51.3514 47.3068C51.9245 47.8799 52.2464 48.6571 52.2464 49.4675C52.2464 50.278 51.9245 51.0552 51.3514 51.6282ZM57.4628 53.4182C58.0359 53.9913 58.3578 54.7685 58.3578 55.5789C58.3578 56.3894 58.0359 57.1666 57.4628 57.7397C56.8898 58.3127 56.1126 58.6346 55.3021 58.6346C54.4917 58.6346 53.7145 58.3127 53.1414 57.7397C52.5684 57.1666 52.2464 56.3894 52.2464 55.5789C52.2464 54.7685 52.5684 53.9913 53.1414 53.4182C53.7145 52.8452 54.4917 52.5232 55.3021 52.5232C56.1126 52.5232 56.8898 52.8452 57.4628 53.4182Z" fill="white"/>
    <path d="M76.0551 75.0598L96.0164 63.5352C98.604 62.0412 100.036 59.3145 99.9993 56.5252C100.035 53.7372 98.6028 51.0123 96.0164 49.5191L71.6424 35.4467C75.0324 42.6256 76.9392 53.5095 76.6721 69.2397C76.6393 71.1674 76.4663 73.1639 76.0551 75.0598Z" fill="#EC831E"/>
    <path d="M51.9313 24.0665L12.0973 1.06837C10.7979 0.318131 9.37489 -0.0243106 7.97655 0.0013388L7.9645 0.00132987C3.56582 0.00132987 0 3.56716 0 7.96583V36.013C2.78616 29.8117 6.6343 26.2521 11.1333 24.6549C12.6856 24.1049 14.3479 24.003 15.998 24.003H18.4915C22.067 24.0027 25.5547 25.1116 28.4735 27.1769L30.5187 28.6233C32.1069 29.7468 34.0044 30.3502 35.9497 30.3502C37.8951 30.3502 39.7926 29.7468 41.3808 28.6233L43.426 27.181C45.9408 25.3997 48.8785 24.3289 51.9313 24.0665Z" fill="#EC831E"/>
    <mask id="path-2-outside-1_807_2232" maskUnits="userSpaceOnUse" x="130" y="26.5271" width="207" height="58" fill="black">
        <rect fill="white" x="130" y="26.5271" width="207" height="58"/>
        <path d="M131.6 83.5271V27.5271H152.64C157.173 27.5271 160.907 28.3004 163.84 29.8471C166.827 31.3404 169.04 33.3938 170.48 36.0071C171.973 38.6204 172.72 41.5804 172.72 44.8871C172.72 47.9271 172 50.7538 170.56 53.3671C169.173 55.9804 166.987 58.1138 164 59.7671C161.067 61.3671 157.28 62.1671 152.64 62.1671H142.4V83.5271H131.6ZM142.4 53.4471H152C155.413 53.4471 157.867 52.6738 159.36 51.1271C160.907 49.5804 161.68 47.5004 161.68 44.8871C161.68 42.1671 160.907 40.0604 159.36 38.5671C157.867 37.0738 155.413 36.3271 152 36.3271H142.4V53.4471ZM185.928 83.5271V27.5271H196.728V75.1271H221.288V83.5271H185.928ZM230.884 83.5271L248.644 27.5271H266.324L284.004 83.5271H272.564L257.684 33.8471H257.364L242.164 83.5271H230.884ZM239.924 67.4471L242.724 59.0471H271.284L274.084 67.4471H239.924ZM305.03 83.5271V64.3271L286.15 27.5271H298.39L310.39 53.6871H310.71L322.71 27.5271H334.71L315.83 64.3271V83.5271H305.03Z"/>
    </mask>
    <path d="M131.6 83.5271V27.5271H152.64C157.173 27.5271 160.907 28.3004 163.84 29.8471C166.827 31.3404 169.04 33.3938 170.48 36.0071C171.973 38.6204 172.72 41.5804 172.72 44.8871C172.72 47.9271 172 50.7538 170.56 53.3671C169.173 55.9804 166.987 58.1138 164 59.7671C161.067 61.3671 157.28 62.1671 152.64 62.1671H142.4V83.5271H131.6ZM142.4 53.4471H152C155.413 53.4471 157.867 52.6738 159.36 51.1271C160.907 49.5804 161.68 47.5004 161.68 44.8871C161.68 42.1671 160.907 40.0604 159.36 38.5671C157.867 37.0738 155.413 36.3271 152 36.3271H142.4V53.4471ZM185.928 83.5271V27.5271H196.728V75.1271H221.288V83.5271H185.928ZM230.884 83.5271L248.644 27.5271H266.324L284.004 83.5271H272.564L257.684 33.8471H257.364L242.164 83.5271H230.884ZM239.924 67.4471L242.724 59.0471H271.284L274.084 67.4471H239.924ZM305.03 83.5271V64.3271L286.15 27.5271H298.39L310.39 53.6871H310.71L322.71 27.5271H334.71L315.83 64.3271V83.5271H305.03Z" fill="#002647"/>
    <path d="M131.6 83.5271H130.6V84.5271H131.6V83.5271ZM131.6 27.5271V26.5271H130.6V27.5271H131.6ZM163.84 29.8471L163.374 30.7317L163.383 30.7367L163.393 30.7415L163.84 29.8471ZM170.48 36.0071L169.604 36.4897L169.608 36.4965L169.612 36.5032L170.48 36.0071ZM170.56 53.3671L169.684 52.8845L169.68 52.8914L169.677 52.8984L170.56 53.3671ZM164 59.7671L164.479 60.645L164.484 60.642L164 59.7671ZM142.4 62.1671V61.1671H141.4V62.1671H142.4ZM142.4 83.5271V84.5271H143.4V83.5271H142.4ZM142.4 53.4471H141.4V54.4471H142.4V53.4471ZM159.36 51.1271L158.653 50.42L158.647 50.4262L158.641 50.4325L159.36 51.1271ZM159.36 38.5671L158.653 39.2742L158.659 39.2804L158.665 39.2865L159.36 38.5671ZM142.4 36.3271V35.3271H141.4V36.3271H142.4ZM131.6 83.5271H132.6V27.5271H131.6H130.6V83.5271H131.6ZM131.6 27.5271V28.5271H152.64V27.5271V26.5271H131.6V27.5271ZM152.64 27.5271V28.5271C157.068 28.5271 160.627 29.2835 163.374 30.7317L163.84 29.8471L164.306 28.9625C161.186 27.3174 157.279 26.5271 152.64 26.5271V27.5271ZM163.84 29.8471L163.393 30.7415C166.221 32.1554 168.273 34.0747 169.604 36.4897L170.48 36.0071L171.356 35.5245C169.807 32.7128 167.433 30.5254 164.287 28.9527L163.84 29.8471ZM170.48 36.0071L169.612 36.5032C171.01 38.9509 171.72 41.7368 171.72 44.8871H172.72H173.72C173.72 41.424 172.936 38.29 171.348 35.511L170.48 36.0071ZM172.72 44.8871H171.72C171.72 47.7616 171.041 50.4219 169.684 52.8845L170.56 53.3671L171.436 53.8497C172.959 51.0857 173.72 48.0925 173.72 44.8871H172.72ZM170.56 53.3671L169.677 52.8984C168.394 55.3154 166.36 57.3179 163.516 58.8922L164 59.7671L164.484 60.642C167.614 58.9096 169.953 56.6455 171.443 53.8358L170.56 53.3671ZM164 59.7671L163.521 58.8892C160.781 60.384 157.174 61.1671 152.64 61.1671V62.1671V63.1671C157.386 63.1671 161.353 62.3502 164.479 60.645L164 59.7671ZM152.64 62.1671V61.1671H142.4V62.1671V63.1671H152.64V62.1671ZM142.4 62.1671H141.4V83.5271H142.4H143.4V62.1671H142.4ZM142.4 83.5271V82.5271H131.6V83.5271V84.5271H142.4V83.5271ZM142.4 53.4471V54.4471H152V53.4471V52.4471H142.4V53.4471ZM152 53.4471V54.4471C155.53 54.4471 158.312 53.6522 160.079 51.8217L159.36 51.1271L158.641 50.4325C157.421 51.6953 155.297 52.4471 152 52.4471V53.4471ZM159.36 51.1271L160.067 51.8342C161.837 50.0642 162.68 47.7103 162.68 44.8871H161.68H160.68C160.68 47.2906 159.976 49.0967 158.653 50.42L159.36 51.1271ZM161.68 44.8871H162.68C162.68 41.9719 161.845 39.5765 160.055 37.8477L159.36 38.5671L158.665 39.2865C159.968 40.5444 160.68 42.3623 160.68 44.8871H161.68ZM159.36 38.5671L160.067 37.86C158.299 36.0917 155.522 35.3271 152 35.3271V36.3271V37.3271C155.305 37.3271 157.435 38.0559 158.653 39.2742L159.36 38.5671ZM152 36.3271V35.3271H142.4V36.3271V37.3271H152V36.3271ZM142.4 36.3271H141.4V53.4471H142.4H143.4V36.3271H142.4ZM185.928 83.5271H184.928V84.5271H185.928V83.5271ZM185.928 27.5271V26.5271H184.928V27.5271H185.928ZM196.728 27.5271H197.728V26.5271H196.728V27.5271ZM196.728 75.1271H195.728V76.1271H196.728V75.1271ZM221.288 75.1271H222.288V74.1271H221.288V75.1271ZM221.288 83.5271V84.5271H222.288V83.5271H221.288ZM185.928 83.5271H186.928V27.5271H185.928H184.928V83.5271H185.928ZM185.928 27.5271V28.5271H196.728V27.5271V26.5271H185.928V27.5271ZM196.728 27.5271H195.728V75.1271H196.728H197.728V27.5271H196.728ZM196.728 75.1271V76.1271H221.288V75.1271V74.1271H196.728V75.1271ZM221.288 75.1271H220.288V83.5271H221.288H222.288V75.1271H221.288ZM221.288 83.5271V82.5271H185.928V83.5271V84.5271H221.288V83.5271ZM230.884 83.5271L229.931 83.2248L229.518 84.5271H230.884V83.5271ZM248.644 27.5271V26.5271H247.912L247.691 27.2248L248.644 27.5271ZM266.324 27.5271L267.278 27.226L267.057 26.5271H266.324V27.5271ZM284.004 83.5271V84.5271H285.369L284.958 83.226L284.004 83.5271ZM272.564 83.5271L271.606 83.814L271.82 84.5271H272.564V83.5271ZM257.684 33.8471L258.642 33.5602L258.429 32.8471H257.684V33.8471ZM257.364 33.8471V32.8471H256.625L256.408 33.5545L257.364 33.8471ZM242.164 83.5271V84.5271H242.904L243.121 83.8197L242.164 83.5271ZM239.924 67.4471L238.976 67.1309L238.537 68.4471H239.924V67.4471ZM242.724 59.0471V58.0471H242.004L241.776 58.7309L242.724 59.0471ZM271.284 59.0471L272.233 58.7309L272.005 58.0471H271.284V59.0471ZM274.084 67.4471V68.4471H275.472L275.033 67.1309L274.084 67.4471ZM230.884 83.5271L231.838 83.8294L249.598 27.8294L248.644 27.5271L247.691 27.2248L229.931 83.2248L230.884 83.5271ZM248.644 27.5271V28.5271H266.324V27.5271V26.5271H248.644V27.5271ZM266.324 27.5271L265.371 27.8282L283.051 83.8282L284.004 83.5271L284.958 83.226L267.278 27.226L266.324 27.5271ZM284.004 83.5271V82.5271H272.564V83.5271V84.5271H284.004V83.5271ZM272.564 83.5271L273.522 83.2402L258.642 33.5602L257.684 33.8471L256.726 34.134L271.606 83.814L272.564 83.5271ZM257.684 33.8471V32.8471H257.364V33.8471V34.8471H257.684V33.8471ZM257.364 33.8471L256.408 33.5545L241.208 83.2345L242.164 83.5271L243.121 83.8197L258.321 34.1397L257.364 33.8471ZM242.164 83.5271V82.5271H230.884V83.5271V84.5271H242.164V83.5271ZM239.924 67.4471L240.873 67.7633L243.673 59.3633L242.724 59.0471L241.776 58.7309L238.976 67.1309L239.924 67.4471ZM242.724 59.0471V60.0471H271.284V59.0471V58.0471H242.724V59.0471ZM271.284 59.0471L270.336 59.3633L273.136 67.7633L274.084 67.4471L275.033 67.1309L272.233 58.7309L271.284 59.0471ZM274.084 67.4471V66.4471H239.924V67.4471V68.4471H274.084V67.4471ZM305.03 83.5271H304.03V84.5271H305.03V83.5271ZM305.03 64.3271H306.03V64.0855L305.92 63.8706L305.03 64.3271ZM286.15 27.5271V26.5271H284.513L285.26 27.9836L286.15 27.5271ZM298.39 27.5271L299.299 27.1102L299.031 26.5271H298.39V27.5271ZM310.39 53.6871L309.481 54.104L309.749 54.6871H310.39V53.6871ZM310.71 53.6871V54.6871H311.351L311.619 54.104L310.71 53.6871ZM322.71 27.5271V26.5271H322.069L321.801 27.1102L322.71 27.5271ZM334.71 27.5271L335.6 27.9836L336.347 26.5271H334.71V27.5271ZM315.83 64.3271L314.94 63.8706L314.83 64.0855V64.3271H315.83ZM315.83 83.5271V84.5271H316.83V83.5271H315.83ZM305.03 83.5271H306.03V64.3271H305.03H304.03V83.5271H305.03ZM305.03 64.3271L305.92 63.8706L287.04 27.0706L286.15 27.5271L285.26 27.9836L304.14 64.7836L305.03 64.3271ZM286.15 27.5271V28.5271H298.39V27.5271V26.5271H286.15V27.5271ZM298.39 27.5271L297.481 27.944L309.481 54.104L310.39 53.6871L311.299 53.2702L299.299 27.1102L298.39 27.5271ZM310.39 53.6871V54.6871H310.71V53.6871V52.6871H310.39V53.6871ZM310.71 53.6871L311.619 54.104L323.619 27.944L322.71 27.5271L321.801 27.1102L309.801 53.2702L310.71 53.6871ZM322.71 27.5271V28.5271H334.71V27.5271V26.5271H322.71V27.5271ZM334.71 27.5271L333.82 27.0706L314.94 63.8706L315.83 64.3271L316.72 64.7836L335.6 27.9836L334.71 27.5271ZM315.83 64.3271H314.83V83.5271H315.83H316.83V64.3271H315.83ZM315.83 83.5271V82.5271H305.03V83.5271V84.5271H315.83V83.5271Z" fill="#002647" mask="url(#path-2-outside-1_807_2232)"/>
    <mask id="path-4-outside-2_807_2232" maskUnits="userSpaceOnUse" x="351" y="25.5271" width="349" height="60" fill="black">
        <rect fill="white" x="351" y="25.5271" width="349" height="60"/>
        <path d="M379.703 84.4871C374.103 84.4871 369.25 83.2871 365.143 80.8871C361.09 78.4338 357.97 75.0471 355.783 70.7271C353.596 66.3538 352.503 61.3138 352.503 55.6071C352.503 49.9004 353.596 44.8604 355.783 40.4871C358.023 36.1138 361.17 32.7004 365.223 30.2471C369.276 27.7938 374.103 26.5671 379.703 26.5671C386.53 26.5671 392.103 28.2471 396.423 31.6071C400.743 34.9671 403.463 39.7138 404.583 45.8471H392.663C391.97 42.8604 390.53 40.5404 388.343 38.8871C386.156 37.1804 383.25 36.3271 379.623 36.3271C376.263 36.3271 373.356 37.1271 370.903 38.7271C368.503 40.2738 366.663 42.4871 365.383 45.3671C364.156 48.2471 363.543 51.6604 363.543 55.6071C363.543 59.5538 364.156 62.9671 365.383 65.8471C366.663 68.6738 368.503 70.8604 370.903 72.4071C373.356 73.9538 376.263 74.7271 379.623 74.7271C383.25 74.7271 386.156 73.9538 388.343 72.4071C390.583 70.8604 392.05 68.6738 392.743 65.8471H404.583C403.516 71.6604 400.796 76.2204 396.423 79.5271C392.103 82.8338 386.53 84.4871 379.703 84.4871ZM446.239 84.4871C440.693 84.4871 435.813 83.2604 431.599 80.8071C427.439 78.3538 424.159 74.9671 421.759 70.6471C419.359 66.2738 418.159 61.2338 418.159 55.5271C418.159 49.8204 419.359 44.8071 421.759 40.4871C424.159 36.1138 427.439 32.7004 431.599 30.2471C435.813 27.7938 440.693 26.5671 446.239 26.5671C451.839 26.5671 456.746 27.7938 460.959 30.2471C465.226 32.7004 468.533 36.1138 470.879 40.4871C473.226 44.8071 474.399 49.8204 474.399 55.5271C474.399 61.2338 473.226 66.2738 470.879 70.6471C468.533 74.9671 465.226 78.3538 460.959 80.8071C456.746 83.2604 451.839 84.4871 446.239 84.4871ZM446.239 74.8071C449.759 74.8071 452.799 74.0338 455.359 72.4871C457.919 70.8871 459.893 68.6471 461.279 65.7671C462.666 62.8871 463.359 59.4738 463.359 55.5271C463.359 51.5271 462.666 48.1138 461.279 45.2871C459.893 42.4071 457.919 40.1938 455.359 38.6471C452.799 37.1004 449.759 36.3271 446.239 36.3271C442.826 36.3271 439.839 37.1004 437.279 38.6471C434.719 40.1938 432.719 42.4071 431.279 45.2871C429.893 48.1138 429.199 51.5271 429.199 55.5271C429.199 59.4738 429.893 62.8871 431.279 65.7671C432.719 68.6471 434.719 70.8871 437.279 72.4871C439.839 74.0338 442.826 74.8071 446.239 74.8071ZM488.834 83.5271V27.5271H509.794C514.274 27.5271 517.981 28.3004 520.914 29.8471C523.901 31.3938 526.114 33.4738 527.554 36.0871C528.994 38.6471 529.714 41.5004 529.714 44.6471C529.714 47.6338 528.994 50.4338 527.554 53.0471C526.168 55.6071 523.981 57.6871 520.994 59.2871C518.061 60.8338 514.274 61.6071 509.634 61.6071H499.634V83.5271H488.834ZM517.874 83.5271L506.354 58.8871H518.034L530.194 83.5271H517.874ZM499.634 53.7671H509.074C512.381 53.7671 514.808 52.9671 516.354 51.3671C517.901 49.7671 518.674 47.6604 518.674 45.0471C518.674 42.4338 517.901 40.3804 516.354 38.8871C514.808 37.3404 512.381 36.5671 509.074 36.5671H499.634V53.7671ZM543.006 83.5271V27.5271H556.366L579.246 69.0471H579.566V27.5271H590.366V83.5271H577.006L554.126 42.0871H553.806V83.5271H543.006ZM605.538 83.5271V27.5271H642.418V36.2471H616.338V50.8871H640.018V59.2871H616.338V74.8071H642.418V83.5271H605.538ZM656.428 83.5271V27.5271H677.388C681.868 27.5271 685.575 28.3004 688.508 29.8471C691.495 31.3938 693.708 33.4738 695.148 36.0871C696.588 38.6471 697.308 41.5004 697.308 44.6471C697.308 47.6338 696.588 50.4338 695.148 53.0471C693.761 55.6071 691.575 57.6871 688.588 59.2871C685.655 60.8338 681.868 61.6071 677.228 61.6071H667.228V83.5271H656.428ZM685.468 83.5271L673.948 58.8871H685.628L697.788 83.5271H685.468ZM667.228 53.7671H676.668C679.975 53.7671 682.401 52.9671 683.948 51.3671C685.495 49.7671 686.268 47.6604 686.268 45.0471C686.268 42.4338 685.495 40.3804 683.948 38.8871C682.401 37.3404 679.975 36.5671 676.668 36.5671H667.228V53.7671Z"/>
    </mask>
    <path d="M379.703 84.4871C374.103 84.4871 369.25 83.2871 365.143 80.8871C361.09 78.4338 357.97 75.0471 355.783 70.7271C353.596 66.3538 352.503 61.3138 352.503 55.6071C352.503 49.9004 353.596 44.8604 355.783 40.4871C358.023 36.1138 361.17 32.7004 365.223 30.2471C369.276 27.7938 374.103 26.5671 379.703 26.5671C386.53 26.5671 392.103 28.2471 396.423 31.6071C400.743 34.9671 403.463 39.7138 404.583 45.8471H392.663C391.97 42.8604 390.53 40.5404 388.343 38.8871C386.156 37.1804 383.25 36.3271 379.623 36.3271C376.263 36.3271 373.356 37.1271 370.903 38.7271C368.503 40.2738 366.663 42.4871 365.383 45.3671C364.156 48.2471 363.543 51.6604 363.543 55.6071C363.543 59.5538 364.156 62.9671 365.383 65.8471C366.663 68.6738 368.503 70.8604 370.903 72.4071C373.356 73.9538 376.263 74.7271 379.623 74.7271C383.25 74.7271 386.156 73.9538 388.343 72.4071C390.583 70.8604 392.05 68.6738 392.743 65.8471H404.583C403.516 71.6604 400.796 76.2204 396.423 79.5271C392.103 82.8338 386.53 84.4871 379.703 84.4871ZM446.239 84.4871C440.693 84.4871 435.813 83.2604 431.599 80.8071C427.439 78.3538 424.159 74.9671 421.759 70.6471C419.359 66.2738 418.159 61.2338 418.159 55.5271C418.159 49.8204 419.359 44.8071 421.759 40.4871C424.159 36.1138 427.439 32.7004 431.599 30.2471C435.813 27.7938 440.693 26.5671 446.239 26.5671C451.839 26.5671 456.746 27.7938 460.959 30.2471C465.226 32.7004 468.533 36.1138 470.879 40.4871C473.226 44.8071 474.399 49.8204 474.399 55.5271C474.399 61.2338 473.226 66.2738 470.879 70.6471C468.533 74.9671 465.226 78.3538 460.959 80.8071C456.746 83.2604 451.839 84.4871 446.239 84.4871ZM446.239 74.8071C449.759 74.8071 452.799 74.0338 455.359 72.4871C457.919 70.8871 459.893 68.6471 461.279 65.7671C462.666 62.8871 463.359 59.4738 463.359 55.5271C463.359 51.5271 462.666 48.1138 461.279 45.2871C459.893 42.4071 457.919 40.1938 455.359 38.6471C452.799 37.1004 449.759 36.3271 446.239 36.3271C442.826 36.3271 439.839 37.1004 437.279 38.6471C434.719 40.1938 432.719 42.4071 431.279 45.2871C429.893 48.1138 429.199 51.5271 429.199 55.5271C429.199 59.4738 429.893 62.8871 431.279 65.7671C432.719 68.6471 434.719 70.8871 437.279 72.4871C439.839 74.0338 442.826 74.8071 446.239 74.8071ZM488.834 83.5271V27.5271H509.794C514.274 27.5271 517.981 28.3004 520.914 29.8471C523.901 31.3938 526.114 33.4738 527.554 36.0871C528.994 38.6471 529.714 41.5004 529.714 44.6471C529.714 47.6338 528.994 50.4338 527.554 53.0471C526.168 55.6071 523.981 57.6871 520.994 59.2871C518.061 60.8338 514.274 61.6071 509.634 61.6071H499.634V83.5271H488.834ZM517.874 83.5271L506.354 58.8871H518.034L530.194 83.5271H517.874ZM499.634 53.7671H509.074C512.381 53.7671 514.808 52.9671 516.354 51.3671C517.901 49.7671 518.674 47.6604 518.674 45.0471C518.674 42.4338 517.901 40.3804 516.354 38.8871C514.808 37.3404 512.381 36.5671 509.074 36.5671H499.634V53.7671ZM543.006 83.5271V27.5271H556.366L579.246 69.0471H579.566V27.5271H590.366V83.5271H577.006L554.126 42.0871H553.806V83.5271H543.006ZM605.538 83.5271V27.5271H642.418V36.2471H616.338V50.8871H640.018V59.2871H616.338V74.8071H642.418V83.5271H605.538ZM656.428 83.5271V27.5271H677.388C681.868 27.5271 685.575 28.3004 688.508 29.8471C691.495 31.3938 693.708 33.4738 695.148 36.0871C696.588 38.6471 697.308 41.5004 697.308 44.6471C697.308 47.6338 696.588 50.4338 695.148 53.0471C693.761 55.6071 691.575 57.6871 688.588 59.2871C685.655 60.8338 681.868 61.6071 677.228 61.6071H667.228V83.5271H656.428ZM685.468 83.5271L673.948 58.8871H685.628L697.788 83.5271H685.468ZM667.228 53.7671H676.668C679.975 53.7671 682.401 52.9671 683.948 51.3671C685.495 49.7671 686.268 47.6604 686.268 45.0471C686.268 42.4338 685.495 40.3804 683.948 38.8871C682.401 37.3404 679.975 36.5671 676.668 36.5671H667.228V53.7671Z" fill="#EC831E"/>
    <path d="M365.143 80.8871L364.625 81.7426L364.632 81.7466L364.639 81.7505L365.143 80.8871ZM355.783 70.7271L354.889 71.1743L354.891 71.1787L355.783 70.7271ZM355.783 40.4871L354.893 40.0312L354.889 40.0399L355.783 40.4871ZM365.223 30.2471L364.705 29.3916L364.705 29.3916L365.223 30.2471ZM396.423 31.6071L397.037 30.8177L397.037 30.8177L396.423 31.6071ZM404.583 45.8471V46.8471H405.782L405.567 45.6675L404.583 45.8471ZM392.663 45.8471L391.689 46.0732L391.869 46.8471H392.663V45.8471ZM388.343 38.8871L387.728 39.6754L387.734 39.6801L387.74 39.6848L388.343 38.8871ZM370.903 38.7271L371.445 39.5677L371.449 39.5647L370.903 38.7271ZM365.383 45.3671L364.469 44.961L364.466 44.9681L364.463 44.9752L365.383 45.3671ZM365.383 65.8471L364.463 66.239L364.468 66.2493L364.472 66.2596L365.383 65.8471ZM370.903 72.4071L370.361 73.2477L370.37 73.253L370.903 72.4071ZM388.343 72.4071L387.775 71.5841L387.766 71.5907L388.343 72.4071ZM392.743 65.8471V64.8471H391.959L391.772 65.6089L392.743 65.8471ZM404.583 65.8471L405.567 66.0276L405.783 64.8471H404.583V65.8471ZM396.423 79.5271L395.82 78.7294L395.815 78.733L396.423 79.5271ZM379.703 84.4871V83.4871C374.249 83.4871 369.576 82.3195 365.648 80.0237L365.143 80.8871L364.639 81.7505C368.924 84.2547 373.957 85.4871 379.703 85.4871V84.4871ZM365.143 80.8871L365.661 80.0316C361.771 77.6774 358.779 74.4323 356.675 70.2755L355.783 70.7271L354.891 71.1787C357.16 75.6619 360.408 79.1901 364.625 81.7426L365.143 80.8871ZM355.783 70.7271L356.678 70.2799C354.571 66.0669 353.503 61.1844 353.503 55.6071H352.503H351.503C351.503 61.4431 352.622 66.6407 354.889 71.1743L355.783 70.7271ZM352.503 55.6071H353.503C353.503 50.0298 354.571 45.1473 356.678 40.9343L355.783 40.4871L354.889 40.0399C352.622 44.5735 351.503 49.7711 351.503 55.6071H352.503ZM355.783 40.4871L356.673 40.943C358.832 36.7284 361.852 33.4562 365.741 31.1026L365.223 30.2471L364.705 29.3916C360.487 31.9447 357.214 35.4992 354.893 40.0312L355.783 40.4871ZM365.223 30.2471L365.741 31.1026C369.612 28.7598 374.252 27.5671 379.703 27.5671V26.5671V25.5671C373.954 25.5671 368.941 26.8278 364.705 29.3916L365.223 30.2471ZM379.703 26.5671V27.5671C386.364 27.5671 391.704 29.2038 395.809 32.3964L396.423 31.6071L397.037 30.8177C392.502 27.2904 386.696 25.5671 379.703 25.5671V26.5671ZM396.423 31.6071L395.809 32.3964C399.908 35.5845 402.517 40.0992 403.599 46.0267L404.583 45.8471L405.567 45.6675C404.409 39.3283 401.578 34.3497 397.037 30.8177L396.423 31.6071ZM404.583 45.8471V44.8471H392.663V45.8471V46.8471H404.583V45.8471ZM392.663 45.8471L393.637 45.621C392.898 42.435 391.342 39.9008 388.946 38.0894L388.343 38.8871L387.74 39.6848C389.718 41.18 391.042 43.2859 391.689 46.0732L392.663 45.8471ZM388.343 38.8871L388.958 38.0988C386.548 36.2179 383.404 35.3271 379.623 35.3271V36.3271V37.3271C383.096 37.3271 385.764 38.143 387.728 39.6754L388.343 38.8871ZM379.623 36.3271V35.3271C376.098 35.3271 372.996 36.1686 370.357 37.8895L370.903 38.7271L371.449 39.5647C373.717 38.0856 376.428 37.3271 379.623 37.3271V36.3271ZM370.903 38.7271L370.361 37.8865C367.781 39.5495 365.82 41.9222 364.469 44.961L365.383 45.3671L366.297 45.7732C367.506 43.052 369.225 40.998 371.445 39.5677L370.903 38.7271ZM365.383 45.3671L364.463 44.9752C363.172 48.0069 362.543 51.5596 362.543 55.6071H363.543H364.543C364.543 51.7612 365.141 48.4873 366.303 45.759L365.383 45.3671ZM363.543 55.6071H362.543C362.543 59.6546 363.172 63.2073 364.463 66.239L365.383 65.8471L366.303 65.4552C365.141 62.7269 364.543 59.453 364.543 55.6071H363.543ZM365.383 65.8471L364.472 66.2596C365.824 69.2457 367.786 71.5878 370.361 73.2477L370.903 72.4071L371.445 71.5665C369.221 70.1331 367.502 68.1019 366.294 65.4346L365.383 65.8471ZM370.903 72.4071L370.37 73.253C373.007 74.9155 376.105 75.7271 379.623 75.7271V74.7271V73.7271C376.421 73.7271 373.706 72.9921 371.436 71.5612L370.903 72.4071ZM379.623 74.7271V75.7271C383.385 75.7271 386.515 74.9253 388.921 73.2235L388.343 72.4071L387.766 71.5907C385.798 72.9822 383.115 73.7271 379.623 73.7271V74.7271ZM388.343 72.4071L388.911 73.23C391.367 71.5342 392.967 69.1317 393.714 66.0853L392.743 65.8471L391.772 65.6089C391.132 68.2158 389.799 70.1867 387.775 71.5842L388.343 72.4071ZM392.743 65.8471V66.8471H404.583V65.8471V64.8471H392.743V65.8471ZM404.583 65.8471L403.6 65.6666C402.574 71.2548 399.977 75.586 395.82 78.7294L396.423 79.5271L397.026 80.3248C401.615 76.8548 404.459 72.0661 405.567 66.0276L404.583 65.8471ZM396.423 79.5271L395.815 78.733C391.71 81.8752 386.367 83.4871 379.703 83.4871V84.4871V85.4871C386.693 85.4871 392.496 83.7923 397.031 80.3212L396.423 79.5271ZM431.599 80.8071L431.091 81.6685L431.096 81.6713L431.599 80.8071ZM421.759 70.6471L420.883 71.1282L420.885 71.1327L421.759 70.6471ZM421.759 40.4871L422.634 40.9727L422.636 40.9682L421.759 40.4871ZM431.599 30.2471L431.096 29.3829L431.091 29.3857L431.599 30.2471ZM460.959 30.2471L460.456 31.1113L460.461 31.114L460.959 30.2471ZM470.879 40.4871L469.998 40.9599L470.001 40.9644L470.879 40.4871ZM470.879 70.6471L471.758 71.1244L471.761 71.1199L470.879 70.6471ZM460.959 80.8071L460.461 79.9402L460.456 79.9429L460.959 80.8071ZM455.359 72.4871L455.876 73.343L455.883 73.3391L455.889 73.3351L455.359 72.4871ZM461.279 65.7671L460.378 65.3333L460.378 65.3333L461.279 65.7671ZM461.279 45.2871L460.378 45.7209L460.382 45.7275L461.279 45.2871ZM455.359 38.6471L455.876 37.7912L455.876 37.7912L455.359 38.6471ZM437.279 38.6471L436.762 37.7912L436.762 37.7912L437.279 38.6471ZM431.279 45.2871L430.385 44.8399L430.382 44.8467L431.279 45.2871ZM431.279 65.7671L430.378 66.2009L430.382 66.2076L430.385 66.2143L431.279 65.7671ZM437.279 72.4871L436.749 73.3351L436.756 73.3391L436.762 73.343L437.279 72.4871ZM446.239 84.4871V83.4871C440.845 83.4871 436.143 82.2956 432.103 79.9429L431.599 80.8071L431.096 81.6713C435.482 84.2253 440.541 85.4871 446.239 85.4871V84.4871ZM431.599 80.8071L432.107 79.9457C428.104 77.585 424.949 74.3297 422.634 70.1615L421.759 70.6471L420.885 71.1327C423.37 75.6045 426.774 79.1225 431.091 81.6685L431.599 80.8071ZM421.759 70.6471L422.636 70.166C420.328 65.9602 419.159 61.0901 419.159 55.5271H418.159H417.159C417.159 61.3775 418.391 66.5874 420.883 71.1282L421.759 70.6471ZM418.159 55.5271H419.159C419.159 49.9638 420.328 45.1226 422.634 40.9727L421.759 40.4871L420.885 40.0015C418.391 44.4916 417.159 49.677 417.159 55.5271H418.159ZM421.759 40.4871L422.636 40.9682C424.953 36.747 428.107 33.4674 432.107 31.1085L431.599 30.2471L431.091 29.3857C426.771 31.9335 423.366 35.4805 420.883 40.006L421.759 40.4871ZM431.599 30.2471L432.103 31.1113C436.143 28.7586 440.845 27.5671 446.239 27.5671V26.5671V25.5671C440.541 25.5671 435.482 26.8289 431.096 29.3829L431.599 30.2471ZM446.239 26.5671V27.5671C451.689 27.5671 456.417 28.7594 460.456 31.1113L460.959 30.2471L461.463 29.3829C457.075 26.8281 451.989 25.5671 446.239 25.5671V26.5671ZM460.959 30.2471L460.461 31.114C464.564 33.4734 467.739 36.7496 469.998 40.9599L470.879 40.4871L471.761 40.0143C469.326 35.4779 465.888 31.9274 461.458 29.3802L460.959 30.2471ZM470.879 40.4871L470.001 40.9644C472.256 45.1159 473.399 49.9602 473.399 55.5271H474.399H475.399C475.399 49.6807 474.196 44.4983 471.758 40.0098L470.879 40.4871ZM474.399 55.5271H473.399C473.399 61.0937 472.256 65.9668 469.998 70.1743L470.879 70.6471L471.761 71.1199C474.196 66.5807 475.399 61.3738 475.399 55.5271H474.399ZM470.879 70.6471L470.001 70.1698C467.742 74.3271 464.567 77.5789 460.461 79.9402L460.959 80.8071L461.458 81.674C465.885 79.1286 469.323 75.6071 471.758 71.1244L470.879 70.6471ZM460.959 80.8071L460.456 79.9429C456.417 82.2948 451.689 83.4871 446.239 83.4871V84.4871V85.4871C451.989 85.4871 457.075 84.2261 461.463 81.6713L460.959 80.8071ZM446.239 74.8071V75.8071C449.909 75.8071 453.135 74.9995 455.876 73.343L455.359 72.4871L454.842 71.6312C452.464 73.068 449.61 73.8071 446.239 73.8071V74.8071ZM455.359 72.4871L455.889 73.3351C458.619 71.6289 460.717 69.2408 462.18 66.2009L461.279 65.7671L460.378 65.3333C459.069 68.0534 457.219 70.1453 454.829 71.6391L455.359 72.4871ZM461.279 65.7671L462.18 66.2009C463.646 63.1576 464.359 59.5895 464.359 55.5271H463.359H462.359C462.359 59.358 461.686 62.6166 460.378 65.3333L461.279 65.7671ZM463.359 55.5271H464.359C464.359 51.4145 463.647 47.8424 462.177 44.8467L461.279 45.2871L460.382 45.7275C461.685 48.3852 462.359 51.6397 462.359 55.5271H463.359ZM461.279 45.2871L462.18 44.8533C460.716 41.8109 458.614 39.4453 455.876 37.7912L455.359 38.6471L454.842 39.503C457.224 40.9423 459.07 43.0033 460.378 45.7209L461.279 45.2871ZM455.359 38.6471L455.876 37.7912C453.135 36.1347 449.909 35.3271 446.239 35.3271V36.3271V37.3271C449.61 37.3271 452.464 38.0661 454.842 39.503L455.359 38.6471ZM446.239 36.3271V35.3271C442.67 35.3271 439.499 36.1375 436.762 37.7912L437.279 38.6471L437.796 39.503C440.179 38.0633 442.982 37.3271 446.239 37.3271V36.3271ZM437.279 38.6471L436.762 37.7912C434.028 39.4432 431.903 41.8042 430.385 44.8399L431.279 45.2871L432.174 45.7343C433.536 43.01 435.411 40.9443 437.796 39.503L437.279 38.6471ZM431.279 45.2871L430.382 44.8467C428.912 47.8424 428.199 51.4145 428.199 55.5271H429.199H430.199C430.199 51.6397 430.873 48.3852 432.177 45.7275L431.279 45.2871ZM429.199 55.5271H428.199C428.199 59.5895 428.913 63.1576 430.378 66.2009L431.279 65.7671L432.18 65.3333C430.872 62.6166 430.199 59.358 430.199 55.5271H429.199ZM431.279 65.7671L430.385 66.2143C431.902 69.2475 434.023 71.631 436.749 73.3351L437.279 72.4871L437.809 71.6391C435.416 70.1432 433.537 68.0467 432.174 65.3199L431.279 65.7671ZM437.279 72.4871L436.762 73.343C439.499 74.9967 442.67 75.8071 446.239 75.8071V74.8071V73.8071C442.982 73.8071 440.179 73.0709 437.796 71.6312L437.279 72.4871ZM488.834 83.5271H487.834V84.5271H488.834V83.5271ZM488.834 27.5271V26.5271H487.834V27.5271H488.834ZM520.914 29.8471L520.448 30.7317L520.455 30.7351L520.914 29.8471ZM527.554 36.0871L526.679 36.5697L526.683 36.5774L527.554 36.0871ZM527.554 53.0471L526.679 52.5645L526.675 52.5708L527.554 53.0471ZM520.994 59.2871L521.461 60.1717L521.467 60.1686L520.994 59.2871ZM499.634 61.6071V60.6071H498.634V61.6071H499.634ZM499.634 83.5271V84.5271H500.634V83.5271H499.634ZM517.874 83.5271L516.968 83.9506L517.238 84.5271H517.874V83.5271ZM506.354 58.8871V57.8871H504.783L505.448 59.3106L506.354 58.8871ZM518.034 58.8871L518.931 58.4445L518.656 57.8871H518.034V58.8871ZM530.194 83.5271V84.5271H531.803L531.091 83.0846L530.194 83.5271ZM499.634 53.7671H498.634V54.7671H499.634V53.7671ZM516.354 51.3671L517.073 52.0621L517.073 52.0621L516.354 51.3671ZM516.354 38.8871L515.647 39.5942L515.653 39.6004L515.66 39.6065L516.354 38.8871ZM499.634 36.5671V35.5671H498.634V36.5671H499.634ZM488.834 83.5271H489.834V27.5271H488.834H487.834V83.5271H488.834ZM488.834 27.5271V28.5271H509.794V27.5271V26.5271H488.834V27.5271ZM509.794 27.5271V28.5271C514.166 28.5271 517.7 29.2827 520.448 30.7317L520.914 29.8471L521.381 28.9625C518.262 27.3182 514.382 26.5271 509.794 26.5271V27.5271ZM520.914 29.8471L520.455 30.7351C523.289 32.2027 525.346 34.1512 526.679 36.5697L527.554 36.0871L528.43 35.6045C526.883 32.7964 524.513 30.5848 521.374 28.9591L520.914 29.8471ZM527.554 36.0871L526.683 36.5774C528.033 38.977 528.714 41.6595 528.714 44.6471H529.714H530.714C530.714 41.3413 529.956 38.3172 528.426 35.5968L527.554 36.0871ZM529.714 44.6471H528.714C528.714 47.4652 528.037 50.0991 526.679 52.5645L527.554 53.0471L528.43 53.5297C529.952 50.7684 530.714 47.8024 530.714 44.6471H529.714ZM527.554 53.0471L526.675 52.5708C525.396 54.9321 523.365 56.8825 520.522 58.4056L520.994 59.2871L521.467 60.1686C524.597 58.4917 526.939 56.2821 528.434 53.5234L527.554 53.0471ZM520.994 59.2871L520.528 58.4025C517.784 59.8492 514.173 60.6071 509.634 60.6071V61.6071V62.6071C514.376 62.6071 518.338 61.8183 521.461 60.1717L520.994 59.2871ZM509.634 61.6071V60.6071H499.634V61.6071V62.6071H509.634V61.6071ZM499.634 61.6071H498.634V83.5271H499.634H500.634V61.6071H499.634ZM499.634 83.5271V82.5271H488.834V83.5271V84.5271H499.634V83.5271ZM517.874 83.5271L518.78 83.1036L507.26 58.4636L506.354 58.8871L505.448 59.3106L516.968 83.9506L517.874 83.5271ZM506.354 58.8871V59.8871H518.034V58.8871V57.8871H506.354V58.8871ZM518.034 58.8871L517.138 59.3296L529.298 83.9696L530.194 83.5271L531.091 83.0846L518.931 58.4445L518.034 58.8871ZM530.194 83.5271V82.5271H517.874V83.5271V84.5271H530.194V83.5271ZM499.634 53.7671V54.7671H509.074V53.7671V52.7671H499.634V53.7671ZM509.074 53.7671V54.7671C512.521 54.7671 515.263 53.9347 517.073 52.0621L516.354 51.3671L515.635 50.6721C514.352 51.9995 512.241 52.7671 509.074 52.7671V53.7671ZM516.354 51.3671L517.073 52.0621C518.831 50.2435 519.674 47.8713 519.674 45.0471H518.674H517.674C517.674 47.4496 516.971 49.2907 515.635 50.6721L516.354 51.3671ZM518.674 45.0471H519.674C519.674 42.2251 518.832 39.889 517.049 38.1677L516.354 38.8871L515.66 39.6065C516.97 40.8719 517.674 42.6424 517.674 45.0471H518.674ZM516.354 38.8871L517.061 38.18C515.25 36.3687 512.513 35.5671 509.074 35.5671V36.5671V37.5671C512.25 37.5671 514.365 38.3122 515.647 39.5942L516.354 38.8871ZM509.074 36.5671V35.5671H499.634V36.5671V37.5671H509.074V36.5671ZM499.634 36.5671H498.634V53.7671H499.634H500.634V36.5671H499.634ZM543.006 83.5271H542.006V84.5271H543.006V83.5271ZM543.006 27.5271V26.5271H542.006V27.5271H543.006ZM556.366 27.5271L557.242 27.0445L556.957 26.5271H556.366V27.5271ZM579.246 69.0471L578.37 69.5297L578.656 70.0471H579.246V69.0471ZM579.566 69.0471V70.0471H580.566V69.0471H579.566ZM579.566 27.5271V26.5271H578.566V27.5271H579.566ZM590.366 27.5271H591.366V26.5271H590.366V27.5271ZM590.366 83.5271V84.5271H591.366V83.5271H590.366ZM577.006 83.5271L576.131 84.0104L576.416 84.5271H577.006V83.5271ZM554.126 42.0871L555.002 41.6038L554.716 41.0871H554.126V42.0871ZM553.806 42.0871V41.0871H552.806V42.0871H553.806ZM553.806 83.5271V84.5271H554.806V83.5271H553.806ZM543.006 83.5271H544.006V27.5271H543.006H542.006V83.5271H543.006ZM543.006 27.5271V28.5271H556.366V27.5271V26.5271H543.006V27.5271ZM556.366 27.5271L555.49 28.0097L578.37 69.5297L579.246 69.0471L580.122 68.5645L557.242 27.0445L556.366 27.5271ZM579.246 69.0471V70.0471H579.566V69.0471V68.0471H579.246V69.0471ZM579.566 69.0471H580.566V27.5271H579.566H578.566V69.0471H579.566ZM579.566 27.5271V28.5271H590.366V27.5271V26.5271H579.566V27.5271ZM590.366 27.5271H589.366V83.5271H590.366H591.366V27.5271H590.366ZM590.366 83.5271V82.5271H577.006V83.5271V84.5271H590.366V83.5271ZM577.006 83.5271L577.882 83.0438L555.002 41.6038L554.126 42.0871L553.251 42.5704L576.131 84.0104L577.006 83.5271ZM554.126 42.0871V41.0871H553.806V42.0871V43.0871H554.126V42.0871ZM553.806 42.0871H552.806V83.5271H553.806H554.806V42.0871H553.806ZM553.806 83.5271V82.5271H543.006V83.5271V84.5271H553.806V83.5271ZM605.538 83.5271H604.538V84.5271H605.538V83.5271ZM605.538 27.5271V26.5271H604.538V27.5271H605.538ZM642.418 27.5271H643.418V26.5271H642.418V27.5271ZM642.418 36.2471V37.2471H643.418V36.2471H642.418ZM616.338 36.2471V35.2471H615.338V36.2471H616.338ZM616.338 50.8871H615.338V51.8871H616.338V50.8871ZM640.018 50.8871H641.018V49.8871H640.018V50.8871ZM640.018 59.2871V60.2871H641.018V59.2871H640.018ZM616.338 59.2871V58.2871H615.338V59.2871H616.338ZM616.338 74.8071H615.338V75.8071H616.338V74.8071ZM642.418 74.8071H643.418V73.8071H642.418V74.8071ZM642.418 83.5271V84.5271H643.418V83.5271H642.418ZM605.538 83.5271H606.538V27.5271H605.538H604.538V83.5271H605.538ZM605.538 27.5271V28.5271H642.418V27.5271V26.5271H605.538V27.5271ZM642.418 27.5271H641.418V36.2471H642.418H643.418V27.5271H642.418ZM642.418 36.2471V35.2471H616.338V36.2471V37.2471H642.418V36.2471ZM616.338 36.2471H615.338V50.8871H616.338H617.338V36.2471H616.338ZM616.338 50.8871V51.8871H640.018V50.8871V49.8871H616.338V50.8871ZM640.018 50.8871H639.018V59.2871H640.018H641.018V50.8871H640.018ZM640.018 59.2871V58.2871H616.338V59.2871V60.2871H640.018V59.2871ZM616.338 59.2871H615.338V74.8071H616.338H617.338V59.2871H616.338ZM616.338 74.8071V75.8071H642.418V74.8071V73.8071H616.338V74.8071ZM642.418 74.8071H641.418V83.5271H642.418H643.418V74.8071H642.418ZM642.418 83.5271V82.5271H605.538V83.5271V84.5271H642.418V83.5271ZM656.428 83.5271H655.428V84.5271H656.428V83.5271ZM656.428 27.5271V26.5271H655.428V27.5271H656.428ZM688.508 29.8471L688.042 30.7317L688.048 30.7351L688.508 29.8471ZM695.148 36.0871L694.272 36.5697L694.277 36.5774L695.148 36.0871ZM695.148 53.0471L694.272 52.5645L694.269 52.5708L695.148 53.0471ZM688.588 59.2871L689.055 60.1717L689.06 60.1686L688.588 59.2871ZM667.228 61.6071V60.6071H666.228V61.6071H667.228ZM667.228 83.5271V84.5271H668.228V83.5271H667.228ZM685.468 83.5271L684.562 83.9506L684.832 84.5271H685.468V83.5271ZM673.948 58.8871V57.8871H672.377L673.042 59.3106L673.948 58.8871ZM685.628 58.8871L686.525 58.4445L686.25 57.8871H685.628V58.8871ZM697.788 83.5271V84.5271H699.397L698.685 83.0846L697.788 83.5271ZM667.228 53.7671H666.228V54.7671H667.228V53.7671ZM683.948 51.3671L684.667 52.0621L684.667 52.0621L683.948 51.3671ZM683.948 38.8871L683.241 39.5942L683.247 39.6004L683.254 39.6065L683.948 38.8871ZM667.228 36.5671V35.5671H666.228V36.5671H667.228ZM656.428 83.5271H657.428V27.5271H656.428H655.428V83.5271H656.428ZM656.428 27.5271V28.5271H677.388V27.5271V26.5271H656.428V27.5271ZM677.388 27.5271V28.5271C681.76 28.5271 685.294 29.2827 688.042 30.7317L688.508 29.8471L688.975 28.9625C685.856 27.3182 681.976 26.5271 677.388 26.5271V27.5271ZM688.508 29.8471L688.048 30.7351C690.882 32.2027 692.94 34.1512 694.272 36.5697L695.148 36.0871L696.024 35.6045C694.477 32.7964 692.107 30.5848 688.968 28.9591L688.508 29.8471ZM695.148 36.0871L694.277 36.5774C695.626 38.977 696.308 41.6595 696.308 44.6471H697.308H698.308C698.308 41.3413 697.55 38.3172 696.02 35.5968L695.148 36.0871ZM697.308 44.6471H696.308C696.308 47.4652 695.631 50.0991 694.272 52.5645L695.148 53.0471L696.024 53.5297C697.545 50.7684 698.308 47.8024 698.308 44.6471H697.308ZM695.148 53.0471L694.269 52.5708C692.99 54.9321 690.959 56.8825 688.116 58.4056L688.588 59.2871L689.06 60.1686C692.191 58.4917 694.533 56.2821 696.027 53.5234L695.148 53.0471ZM688.588 59.2871L688.122 58.4025C685.378 59.8492 681.767 60.6071 677.228 60.6071V61.6071V62.6071C681.969 62.6071 685.932 61.8183 689.055 60.1717L688.588 59.2871ZM677.228 61.6071V60.6071H667.228V61.6071V62.6071H677.228V61.6071ZM667.228 61.6071H666.228V83.5271H667.228H668.228V61.6071H667.228ZM667.228 83.5271V82.5271H656.428V83.5271V84.5271H667.228V83.5271ZM685.468 83.5271L686.374 83.1036L674.854 58.4636L673.948 58.8871L673.042 59.3106L684.562 83.9506L685.468 83.5271ZM673.948 58.8871V59.8871H685.628V58.8871V57.8871H673.948V58.8871ZM685.628 58.8871L684.731 59.3296L696.891 83.9696L697.788 83.5271L698.685 83.0846L686.525 58.4445L685.628 58.8871ZM697.788 83.5271V82.5271H685.468V83.5271V84.5271H697.788V83.5271ZM667.228 53.7671V54.7671H676.668V53.7671V52.7671H667.228V53.7671ZM676.668 53.7671V54.7671C680.115 54.7671 682.857 53.9347 684.667 52.0621L683.948 51.3671L683.229 50.6721C681.946 51.9995 679.835 52.7671 676.668 52.7671V53.7671ZM683.948 51.3671L684.667 52.0621C686.425 50.2435 687.268 47.8713 687.268 45.0471H686.268H685.268C685.268 47.4496 684.564 49.2907 683.229 50.6721L683.948 51.3671ZM686.268 45.0471H687.268C687.268 42.2251 686.425 39.889 684.643 38.1677L683.948 38.8871L683.254 39.6065C684.564 40.8719 685.268 42.6424 685.268 45.0471H686.268ZM683.948 38.8871L684.655 38.18C682.844 36.3687 680.106 35.5671 676.668 35.5671V36.5671V37.5671C679.843 37.5671 681.959 38.3122 683.241 39.5942L683.948 38.8871ZM676.668 36.5671V35.5671H667.228V36.5671V37.5671H676.668V36.5671ZM667.228 36.5671H666.228V53.7671H667.228H668.228V36.5671H667.228Z" fill="#EC831E" mask="url(#path-4-outside-2_807_2232)"/>
</svg>
