<svg width="558" height="114" viewBox="0 0 558 114" fill="none" xmlns="http://www.w3.org/2000/svg">
    <path d="M55.3021 40.3004C56.1126 40.3004 56.8898 40.6224 57.4628 41.1954C58.0359 41.7685 58.3578 42.5457 58.3578 43.3561C58.3578 44.1665 58.0359 44.9438 57.4628 45.5168C56.8898 46.0899 56.1126 46.4118 55.3021 46.4118C54.4917 46.4118 53.7145 46.0899 53.1414 45.5168C52.5684 44.9438 52.2464 44.1665 52.2464 43.3561C52.2464 42.5457 52.5684 41.7685 53.1414 41.1954C53.7145 40.6224 54.4917 40.3004 55.3021 40.3004ZM17.6151 41.319C18.4255 41.319 19.2028 41.6409 19.7758 42.214C20.3489 42.787 20.6708 43.5643 20.6708 44.3747V47.4304H23.7265C24.5369 47.4304 25.3142 47.7523 25.8872 48.3254C26.4603 48.8985 26.7822 49.6757 26.7822 50.4861C26.7822 51.2965 26.4603 52.0738 25.8872 52.6468C25.3142 53.2199 24.5369 53.5418 23.7265 53.5418H20.6708V56.5975C20.6708 57.4079 20.3489 58.1852 19.7758 58.7582C19.2028 59.3313 18.4255 59.6532 17.6151 59.6532C16.8047 59.6532 16.0275 59.3313 15.4544 58.7582C14.8813 58.1852 14.5594 57.4079 14.5594 56.5975V53.5418H11.5037C10.6933 53.5418 9.91604 53.2199 9.34299 52.6468C8.76993 52.0738 8.44799 51.2965 8.44799 50.4861C8.44799 49.6757 8.76993 48.8985 9.34299 48.3254C9.91604 47.7523 10.6933 47.4304 11.5037 47.4304H14.5594V44.3747C14.5594 43.5643 14.8813 42.787 15.4544 42.214C16.0275 41.6409 16.8047 41.319 17.6151 41.319ZM64.4692 49.4675C64.4692 50.278 64.1473 51.0552 63.5743 51.6282C63.0012 52.2013 62.224 52.5232 61.4135 52.5232C60.6031 52.5232 59.8259 52.2013 59.2528 51.6282C58.6798 51.0552 58.3578 50.278 58.3578 49.4675C58.3578 48.6571 58.6798 47.8799 59.2528 47.3068C59.8259 46.7338 60.6031 46.4118 61.4135 46.4118C62.224 46.4118 63.0012 46.7338 63.5743 47.3068C64.1473 47.8799 64.4692 48.6571 64.4692 49.4675ZM49.1907 52.5232C50.0011 52.5232 50.7784 52.2013 51.3514 51.6282C51.9245 51.0552 52.2464 50.278 52.2464 49.4675C52.2464 48.6571 51.9245 47.8799 51.3514 47.3068C50.7784 46.7338 50.0011 46.4118 49.1907 46.4118C48.3803 46.4118 47.6031 46.7338 47.03 47.3068C46.457 47.8799 46.135 48.6571 46.135 49.4675C46.135 50.278 46.457 51.0552 47.03 51.6282C47.6031 52.2013 48.3803 52.5232 49.1907 52.5232ZM58.3578 55.5789C58.3578 54.7685 58.0359 53.9913 57.4628 53.4182C56.8898 52.8452 56.1126 52.5232 55.3021 52.5232C54.4917 52.5232 53.7145 52.8452 53.1414 53.4182C52.5684 53.9913 52.2464 54.7685 52.2464 55.5789C52.2464 56.3894 52.5684 57.1666 53.1414 57.7397C53.7145 58.3127 54.4917 58.6346 55.3021 58.6346C56.1126 58.6346 56.8898 58.3127 57.4628 57.7397C58.0359 57.1666 58.3578 56.3894 58.3578 55.5789Z" fill="black"/>
    <path d="M1.86437 83.8296C1.17759 83.5013 0.558139 83.1052 0 82.6516V104.867C0 106.582 0.541876 108.17 1.46375 109.47C3.7641 112.969 8.42427 114.106 12.0974 111.986L60.0164 84.3198C59.3242 84.0445 58.6951 83.7102 58.126 83.3366C56.4637 82.2447 54.997 80.8269 53.5302 79.4091L53.5084 79.3879C51.7026 77.643 49.8994 75.9006 47.7244 74.7685C45.345 73.538 42.7049 72.8943 40.024 72.8943H31.8795C29.1994 72.8945 26.5584 73.5386 24.1792 74.7725C21.9954 75.9052 20.1864 77.6571 18.3774 79.4091C16.9107 80.8269 15.4439 82.2447 13.7735 83.3366C11.9175 84.5337 9.74809 85.1533 7.53983 85.1171C5.57517 85.1211 3.63502 84.6809 1.86437 83.8296Z" fill="#002647"/>
    <path fill-rule="evenodd" clip-rule="evenodd" d="M0 82.6516C0.558139 83.1052 1.17759 83.5013 1.86437 83.8296C3.63502 84.6809 5.57517 85.1211 7.53983 85.1171C9.74809 85.1533 11.9175 84.5337 13.7735 83.3366C15.4439 82.2447 16.9107 80.8269 18.3774 79.4091C20.1864 77.6571 21.9954 75.9052 24.1792 74.7725C26.5584 73.5386 29.1994 72.8945 31.8795 72.8943H40.024C42.7049 72.8943 45.345 73.538 47.7244 74.7685C49.8994 75.9006 51.7026 77.643 53.5084 79.3879L53.5302 79.4091C54.997 80.8269 56.4637 82.2447 58.126 83.3366C58.6951 83.7102 59.3242 84.0445 60.0164 84.3198L76.0551 75.0598C76.4663 73.1639 76.6393 71.1674 76.6721 69.2397C76.9392 53.5095 75.0324 42.6256 71.6424 35.4467L51.9313 24.0665C48.8785 24.3289 45.9408 25.3997 43.426 27.181L41.3808 28.6233C39.7926 29.7468 37.8951 30.3502 35.9497 30.3502C34.0044 30.3502 32.1069 29.7468 30.5187 28.6233L28.4735 27.1769C25.5547 25.1116 22.067 24.0027 18.4915 24.003H15.998C14.3479 24.003 12.6856 24.1049 11.1333 24.6549C6.6343 26.2521 2.78616 29.8117 0 36.013V82.6516ZM57.4628 41.1954C56.8898 40.6224 56.1126 40.3004 55.3021 40.3004C54.4917 40.3004 53.7145 40.6224 53.1414 41.1954C52.5684 41.7685 52.2464 42.5457 52.2464 43.3561C52.2464 44.1665 52.5684 44.9438 53.1414 45.5168C53.7145 46.0899 54.4917 46.4118 55.3021 46.4118C56.1126 46.4118 56.8898 46.0899 57.4628 45.5168C58.0359 44.9438 58.3578 44.1665 58.3578 43.3561C58.3578 42.5457 58.0359 41.7685 57.4628 41.1954ZM19.7758 42.214C19.2028 41.6409 18.4255 41.319 17.6151 41.319C16.8047 41.319 16.0275 41.6409 15.4544 42.214C14.8813 42.787 14.5594 43.5643 14.5594 44.3747V47.4304H11.5037C10.6933 47.4304 9.91604 47.7523 9.34299 48.3254C8.76993 48.8985 8.44799 49.6757 8.44799 50.4861C8.44799 51.2965 8.76993 52.0738 9.34299 52.6468C9.91604 53.2199 10.6933 53.5418 11.5037 53.5418H14.5594V56.5975C14.5594 57.4079 14.8813 58.1852 15.4544 58.7582C16.0275 59.3313 16.8047 59.6532 17.6151 59.6532C18.4255 59.6532 19.2028 59.3313 19.7758 58.7582C20.3489 58.1852 20.6708 57.4079 20.6708 56.5975V53.5418H23.7265C24.5369 53.5418 25.3142 53.2199 25.8872 52.6468C26.4603 52.0738 26.7822 51.2965 26.7822 50.4861C26.7822 49.6757 26.4603 48.8985 25.8872 48.3254C25.3142 47.7523 24.5369 47.4304 23.7265 47.4304H20.6708V44.3747C20.6708 43.5643 20.3489 42.787 19.7758 42.214ZM63.5743 51.6282C64.1473 51.0552 64.4692 50.278 64.4692 49.4675C64.4692 48.6571 64.1473 47.8799 63.5743 47.3068C63.0012 46.7338 62.224 46.4118 61.4135 46.4118C60.6031 46.4118 59.8259 46.7338 59.2528 47.3068C58.6798 47.8799 58.3578 48.6571 58.3578 49.4675C58.3578 50.278 58.6798 51.0552 59.2528 51.6282C59.8259 52.2013 60.6031 52.5232 61.4135 52.5232C62.224 52.5232 63.0012 52.2013 63.5743 51.6282ZM51.3514 51.6282C50.7784 52.2013 50.0011 52.5232 49.1907 52.5232C48.3803 52.5232 47.6031 52.2013 47.03 51.6282C46.457 51.0552 46.135 50.278 46.135 49.4675C46.135 48.6571 46.457 47.8799 47.03 47.3068C47.6031 46.7338 48.3803 46.4118 49.1907 46.4118C50.0011 46.4118 50.7784 46.7338 51.3514 47.3068C51.9245 47.8799 52.2464 48.6571 52.2464 49.4675C52.2464 50.278 51.9245 51.0552 51.3514 51.6282ZM57.4628 53.4182C58.0359 53.9913 58.3578 54.7685 58.3578 55.5789C58.3578 56.3894 58.0359 57.1666 57.4628 57.7397C56.8898 58.3127 56.1126 58.6346 55.3021 58.6346C54.4917 58.6346 53.7145 58.3127 53.1414 57.7397C52.5684 57.1666 52.2464 56.3894 52.2464 55.5789C52.2464 54.7685 52.5684 53.9913 53.1414 53.4182C53.7145 52.8452 54.4917 52.5232 55.3021 52.5232C56.1126 52.5232 56.8898 52.8452 57.4628 53.4182Z" fill="white"/>
    <path d="M76.0551 75.0598L96.0164 63.5352C98.604 62.0412 100.036 59.3145 99.9993 56.5252C100.035 53.7372 98.6028 51.0123 96.0164 49.5191L71.6424 35.4467C75.0324 42.6256 76.9392 53.5095 76.6721 69.2397C76.6393 71.1674 76.4663 73.1639 76.0551 75.0598Z" fill="#EC831E"/>
    <path d="M51.9313 24.0665L12.0973 1.06837C10.7979 0.318131 9.37489 -0.0243106 7.97655 0.0013388L7.9645 0.00132987C3.56582 0.00132987 0 3.56716 0 7.96583V36.013C2.78616 29.8117 6.6343 26.2521 11.1333 24.6549C12.6856 24.1049 14.3479 24.003 15.998 24.003H18.4915C22.067 24.0027 25.5547 25.1116 28.4735 27.1769L30.5187 28.6233C32.1069 29.7468 34.0044 30.3502 35.9497 30.3502C37.8951 30.3502 39.7926 29.7468 41.3808 28.6233L43.426 27.181C45.9408 25.3997 48.8785 24.3289 51.9313 24.0665Z" fill="#EC831E"/>
    <mask id="path-2-outside-1_807_2232" maskUnits="userSpaceOnUse" x="129" y="33.5271" width="156" height="44" fill="black">
        <rect fill="white" x="129" y="33.5271" width="156" height="44"/>
        <path d="M130.7 76.5271V34.5271H146.48C149.88 34.5271 152.68 35.1071 154.88 36.2671C157.12 37.3871 158.78 38.9271 159.86 40.8871C160.98 42.8471 161.54 45.0671 161.54 47.5471C161.54 49.8271 161 51.9471 159.92 53.9071C158.88 55.8671 157.24 57.4671 155 58.7071C152.8 59.9071 149.96 60.5071 146.48 60.5071H138.8V76.5271H130.7ZM138.8 53.9671H146C148.56 53.9671 150.4 53.3871 151.52 52.2271C152.68 51.0671 153.26 49.5071 153.26 47.5471C153.26 45.5071 152.68 43.9271 151.52 42.8071C150.4 41.6871 148.56 41.1271 146 41.1271H138.8V53.9671ZM171.446 76.5271V34.5271H179.546V70.2271H197.966V76.5271H171.446ZM205.163 76.5271L218.483 34.5271H231.743L245.003 76.5271H236.423L225.263 39.2671H225.023L213.623 76.5271H205.163ZM211.943 64.4671L214.043 58.1671H235.463L237.563 64.4671H211.943ZM260.773 76.5271V62.1271L246.613 34.5271H255.793L264.793 54.1471H265.033L274.033 34.5271H283.033L268.873 62.1271V76.5271H260.773Z"/>
    </mask>
    <path d="M130.7 76.5271V34.5271H146.48C149.88 34.5271 152.68 35.1071 154.88 36.2671C157.12 37.3871 158.78 38.9271 159.86 40.8871C160.98 42.8471 161.54 45.0671 161.54 47.5471C161.54 49.8271 161 51.9471 159.92 53.9071C158.88 55.8671 157.24 57.4671 155 58.7071C152.8 59.9071 149.96 60.5071 146.48 60.5071H138.8V76.5271H130.7ZM138.8 53.9671H146C148.56 53.9671 150.4 53.3871 151.52 52.2271C152.68 51.0671 153.26 49.5071 153.26 47.5471C153.26 45.5071 152.68 43.9271 151.52 42.8071C150.4 41.6871 148.56 41.1271 146 41.1271H138.8V53.9671ZM171.446 76.5271V34.5271H179.546V70.2271H197.966V76.5271H171.446ZM205.163 76.5271L218.483 34.5271H231.743L245.003 76.5271H236.423L225.263 39.2671H225.023L213.623 76.5271H205.163ZM211.943 64.4671L214.043 58.1671H235.463L237.563 64.4671H211.943ZM260.773 76.5271V62.1271L246.613 34.5271H255.793L264.793 54.1471H265.033L274.033 34.5271H283.033L268.873 62.1271V76.5271H260.773Z" fill="#002647"/>
    <path d="M130.7 76.5271H129.7V77.5271H130.7V76.5271ZM130.7 34.5271V33.5271H129.7V34.5271H130.7ZM154.88 36.2671L154.414 37.1517L154.423 37.1567L154.433 37.1615L154.88 36.2671ZM159.86 40.8871L158.984 41.3697L158.988 41.3765L158.992 41.3832L159.86 40.8871ZM159.92 53.9071L159.044 53.4245L159.04 53.4314L159.037 53.4384L159.92 53.9071ZM155 58.7071L155.479 59.585L155.484 59.582L155 58.7071ZM138.8 60.5071V59.5071H137.8V60.5071H138.8ZM138.8 76.5271V77.5271H139.8V76.5271H138.8ZM138.8 53.9671H137.8V54.9671H138.8V53.9671ZM151.52 52.2271L150.813 51.52L150.807 51.5262L150.801 51.5325L151.52 52.2271ZM151.52 42.8071L150.813 43.5142L150.819 43.5204L150.825 43.5265L151.52 42.8071ZM138.8 41.1271V40.1271H137.8V41.1271H138.8ZM130.7 76.5271H131.7V34.5271H130.7H129.7V76.5271H130.7ZM130.7 34.5271V35.5271H146.48V34.5271V33.5271H130.7V34.5271ZM146.48 34.5271V35.5271C149.774 35.5271 152.4 36.0901 154.414 37.1517L154.88 36.2671L155.346 35.3825C152.96 34.1241 149.986 33.5271 146.48 33.5271V34.5271ZM154.88 36.2671L154.433 37.1615C156.514 38.2021 158.013 39.608 158.984 41.3697L159.86 40.8871L160.736 40.4045C159.547 38.2462 157.726 36.5721 155.327 35.3727L154.88 36.2671ZM159.86 40.8871L158.992 41.3832C160.017 43.1775 160.54 45.2235 160.54 47.5471H161.54H162.54C162.54 44.9107 161.943 42.5166 160.728 40.391L159.86 40.8871ZM161.54 47.5471H160.54C160.54 49.6616 160.041 51.6152 159.044 53.4245L159.92 53.9071L160.796 54.3897C161.959 52.279 162.54 49.9925 162.54 47.5471H161.54ZM159.92 53.9071L159.037 53.4384C158.101 55.202 156.613 56.6713 154.516 57.8322L155 58.7071L155.484 59.582C157.867 58.2629 159.659 56.5322 160.803 54.3758L159.92 53.9071ZM155 58.7071L154.521 57.8292C152.514 58.924 149.854 59.5071 146.48 59.5071V60.5071V61.5071C150.066 61.5071 153.086 60.8902 155.479 59.585L155 58.7071ZM146.48 60.5071V59.5071H138.8V60.5071V61.5071H146.48V60.5071ZM138.8 60.5071H137.8V76.5271H138.8H139.8V60.5071H138.8ZM138.8 76.5271V75.5271H130.7V76.5271V77.5271H138.8V76.5271ZM138.8 53.9671V54.9671H146V53.9671V52.9671H138.8V53.9671ZM146 53.9671V54.9671C148.677 54.9671 150.845 54.3655 152.239 52.9217L151.52 52.2271L150.801 51.5325C149.955 52.4087 148.443 52.9671 146 52.9671V53.9671ZM151.52 52.2271L152.227 52.9342C153.61 51.5508 154.26 49.717 154.26 47.5471H153.26H152.26C152.26 49.2972 151.75 50.5834 150.813 51.52L151.52 52.2271ZM153.26 47.5471H154.26C154.26 45.3119 153.618 43.4432 152.215 42.0877L151.52 42.8071L150.825 43.5265C151.742 44.411 152.26 45.7023 152.26 47.5471H153.26ZM151.52 42.8071L152.227 42.1C150.832 40.705 148.669 40.1271 146 40.1271V41.1271V42.1271C148.451 42.1271 149.968 42.6692 150.813 43.5142L151.52 42.8071ZM146 41.1271V40.1271H138.8V41.1271V42.1271H146V41.1271ZM138.8 41.1271H137.8V53.9671H138.8H139.8V41.1271H138.8ZM171.446 76.5271H170.446V77.5271H171.446V76.5271ZM171.446 34.5271V33.5271H170.446V34.5271H171.446ZM179.546 34.5271H180.546V33.5271H179.546V34.5271ZM179.546 70.2271H178.546V71.2271H179.546V70.2271ZM197.966 70.2271H198.966V69.2271H197.966V70.2271ZM197.966 76.5271V77.5271H198.966V76.5271H197.966ZM171.446 76.5271H172.446V34.5271H171.446H170.446V76.5271H171.446ZM171.446 34.5271V35.5271H179.546V34.5271V33.5271H171.446V34.5271ZM179.546 34.5271H178.546V70.2271H179.546H180.546V34.5271H179.546ZM179.546 70.2271V71.2271H197.966V70.2271V69.2271H179.546V70.2271ZM197.966 70.2271H196.966V76.5271H197.966H198.966V70.2271H197.966ZM197.966 76.5271V75.5271H171.446V76.5271V77.5271H197.966V76.5271ZM205.163 76.5271L204.21 76.2248L203.797 77.5271H205.163V76.5271ZM218.483 34.5271V33.5271H217.751L217.53 34.2248L218.483 34.5271ZM231.743 34.5271L232.697 34.226L232.476 33.5271H231.743V34.5271ZM245.003 76.5271V77.5271H246.368L245.957 76.226L245.003 76.5271ZM236.423 76.5271L235.465 76.814L235.679 77.5271H236.423V76.5271ZM225.263 39.2671L226.221 38.9802L226.008 38.2671H225.263V39.2671ZM225.023 39.2671V38.2671H224.283L224.067 38.9745L225.023 39.2671ZM213.623 76.5271V77.5271H214.363L214.58 76.8197L213.623 76.5271ZM211.943 64.4671L210.995 64.1509L210.556 65.4671H211.943V64.4671ZM214.043 58.1671V57.1671H213.323L213.095 57.8509L214.043 58.1671ZM235.463 58.1671L236.412 57.8509L236.184 57.1671H235.463V58.1671ZM237.563 64.4671V65.4671H238.951L238.512 64.1509L237.563 64.4671ZM205.163 76.5271L206.116 76.8294L219.436 34.8294L218.483 34.5271L217.53 34.2248L204.21 76.2248L205.163 76.5271ZM218.483 34.5271V35.5271H231.743V34.5271V33.5271H218.483V34.5271ZM231.743 34.5271L230.79 34.8282L244.05 76.8282L245.003 76.5271L245.957 76.226L232.697 34.226L231.743 34.5271ZM245.003 76.5271V75.5271H236.423V76.5271V77.5271H245.003V76.5271ZM236.423 76.5271L237.381 76.2402L226.221 38.9802L225.263 39.2671L224.305 39.554L235.465 76.814L236.423 76.5271ZM225.263 39.2671V38.2671H225.023V39.2671V40.2671H225.263V39.2671ZM225.023 39.2671L224.067 38.9745L212.667 76.2345L213.623 76.5271L214.58 76.8197L225.98 39.5597L225.023 39.2671ZM213.623 76.5271V75.5271H205.163V76.5271V77.5271H213.623V76.5271ZM211.943 64.4671L212.892 64.7833L214.992 58.4833L214.043 58.1671L213.095 57.8509L210.995 64.1509L211.943 64.4671ZM214.043 58.1671V59.1671H235.463V58.1671V57.1671H214.043V58.1671ZM235.463 58.1671L234.515 58.4833L236.615 64.7833L237.563 64.4671L238.512 64.1509L236.412 57.8509L235.463 58.1671ZM237.563 64.4671V63.4671H211.943V64.4671V65.4671H237.563V64.4671ZM260.773 76.5271H259.773V77.5271H260.773V76.5271ZM260.773 62.1271H261.773V61.8855L261.662 61.6706L260.773 62.1271ZM246.613 34.5271V33.5271H244.976L245.723 34.9836L246.613 34.5271ZM255.793 34.5271L256.701 34.1102L256.434 33.5271H255.793V34.5271ZM264.793 54.1471L263.884 54.564L264.151 55.1471H264.793V54.1471ZM265.033 54.1471V55.1471H265.674L265.941 54.564L265.033 54.1471ZM274.033 34.5271V33.5271H273.391L273.124 34.1102L274.033 34.5271ZM283.033 34.5271L283.922 34.9836L284.669 33.5271H283.033V34.5271ZM268.873 62.1271L267.983 61.6706L267.873 61.8855V62.1271H268.873ZM268.873 76.5271V77.5271H269.873V76.5271H268.873ZM260.773 76.5271H261.773V62.1271H260.773H259.773V76.5271H260.773ZM260.773 62.1271L261.662 61.6706L247.502 34.0706L246.613 34.5271L245.723 34.9836L259.883 62.5836L260.773 62.1271ZM246.613 34.5271V35.5271H255.793V34.5271V33.5271H246.613V34.5271ZM255.793 34.5271L254.884 34.944L263.884 54.564L264.793 54.1471L265.701 53.7302L256.701 34.1102L255.793 34.5271ZM264.793 54.1471V55.1471H265.033V54.1471V53.1471H264.793V54.1471ZM265.033 54.1471L265.941 54.564L274.941 34.944L274.033 34.5271L273.124 34.1102L264.124 53.7302L265.033 54.1471ZM274.033 34.5271V35.5271H283.033V34.5271V33.5271H274.033V34.5271ZM283.033 34.5271L282.143 34.0706L267.983 61.6706L268.873 62.1271L269.762 62.5836L283.922 34.9836L283.033 34.5271ZM268.873 62.1271H267.873V76.5271H268.873H269.873V62.1271H268.873ZM268.873 76.5271V75.5271H260.773V76.5271V77.5271H268.873V76.5271Z" fill="#002647" mask="url(#path-2-outside-1_807_2232)"/>
    <mask id="path-4-outside-2_807_2232" maskUnits="userSpaceOnUse" x="296" y="32.5271" width="262" height="46" fill="black">
        <rect fill="white" x="296" y="32.5271" width="262" height="46"/>
        <path d="M317.527 77.2471C313.327 77.2471 309.687 76.3471 306.607 74.5471C303.567 72.7071 301.227 70.1671 299.587 66.9271C297.947 63.6471 297.127 59.8671 297.127 55.5871C297.127 51.3071 297.947 47.5271 299.587 44.2471C301.267 40.9671 303.627 38.4071 306.667 36.5671C309.707 34.7271 313.327 33.8071 317.527 33.8071C322.647 33.8071 326.827 35.0671 330.067 37.5871C333.307 40.1071 335.347 43.6671 336.187 48.2671H327.247C326.727 46.0271 325.647 44.2871 324.007 43.0471C322.367 41.7671 320.187 41.1271 317.467 41.1271C314.947 41.1271 312.767 41.7271 310.927 42.9271C309.127 44.0871 307.747 45.7471 306.787 47.9071C305.867 50.0671 305.407 52.6271 305.407 55.5871C305.407 58.5471 305.867 61.1071 306.787 63.2671C307.747 65.3871 309.127 67.0271 310.927 68.1871C312.767 69.3471 314.947 69.9271 317.467 69.9271C320.187 69.9271 322.367 69.3471 324.007 68.1871C325.687 67.0271 326.787 65.3871 327.307 63.2671H336.187C335.387 67.6271 333.347 71.0471 330.067 73.5271C326.827 76.0071 322.647 77.2471 317.527 77.2471ZM367.43 77.2471C363.27 77.2471 359.61 76.3271 356.45 74.4871C353.33 72.6471 350.87 70.1071 349.07 66.8671C347.27 63.5871 346.37 59.8071 346.37 55.5271C346.37 51.2471 347.27 47.4871 349.07 44.2471C350.87 40.9671 353.33 38.4071 356.45 36.5671C359.61 34.7271 363.27 33.8071 367.43 33.8071C371.63 33.8071 375.31 34.7271 378.47 36.5671C381.67 38.4071 384.15 40.9671 385.91 44.2471C387.67 47.4871 388.55 51.2471 388.55 55.5271C388.55 59.8071 387.67 63.5871 385.91 66.8671C384.15 70.1071 381.67 72.6471 378.47 74.4871C375.31 76.3271 371.63 77.2471 367.43 77.2471ZM367.43 69.9871C370.07 69.9871 372.35 69.4071 374.27 68.2471C376.19 67.0471 377.67 65.3671 378.71 63.2071C379.75 61.0471 380.27 58.4871 380.27 55.5271C380.27 52.5271 379.75 49.9671 378.71 47.8471C377.67 45.6871 376.19 44.0271 374.27 42.8671C372.35 41.7071 370.07 41.1271 367.43 41.1271C364.87 41.1271 362.63 41.7071 360.71 42.8671C358.79 44.0271 357.29 45.6871 356.21 47.8471C355.17 49.9671 354.65 52.5271 354.65 55.5271C354.65 58.4871 355.17 61.0471 356.21 63.2071C357.29 65.3671 358.79 67.0471 360.71 68.2471C362.63 69.4071 364.87 69.9871 367.43 69.9871ZM399.376 76.5271V34.5271H415.096C418.456 34.5271 421.236 35.1071 423.436 36.2671C425.676 37.4271 427.336 38.9871 428.416 40.9471C429.496 42.8671 430.036 45.0071 430.036 47.3671C430.036 49.6071 429.496 51.7071 428.416 53.6671C427.376 55.5871 425.736 57.1471 423.496 58.3471C421.296 59.5071 418.456 60.0871 414.976 60.0871H407.476V76.5271H399.376ZM421.156 76.5271L412.516 58.0471H421.276L430.396 76.5271H421.156ZM407.476 54.2071H414.556C417.036 54.2071 418.856 53.6071 420.016 52.4071C421.176 51.2071 421.756 49.6271 421.756 47.6671C421.756 45.7071 421.176 44.1671 420.016 43.0471C418.856 41.8871 417.036 41.3071 414.556 41.3071H407.476V54.2071ZM440.005 76.5271V34.5271H450.025L467.185 65.6671H467.425V34.5271H475.525V76.5271H465.505L448.345 45.4471H448.105V76.5271H440.005ZM486.903 76.5271V34.5271H514.563V41.0671H495.003V52.0471H512.763V58.3471H495.003V69.9871H514.563V76.5271H486.903ZM525.071 76.5271V34.5271H540.791C544.151 34.5271 546.931 35.1071 549.131 36.2671C551.371 37.4271 553.031 38.9871 554.111 40.9471C555.191 42.8671 555.731 45.0071 555.731 47.3671C555.731 49.6071 555.191 51.7071 554.111 53.6671C553.071 55.5871 551.431 57.1471 549.191 58.3471C546.991 59.5071 544.151 60.0871 540.671 60.0871H533.171V76.5271H525.071ZM546.851 76.5271L538.211 58.0471H546.971L556.091 76.5271H546.851ZM533.171 54.2071H540.251C542.731 54.2071 544.551 53.6071 545.711 52.4071C546.871 51.2071 547.451 49.6271 547.451 47.6671C547.451 45.7071 546.871 44.1671 545.711 43.0471C544.551 41.8871 542.731 41.3071 540.251 41.3071H533.171V54.2071Z"/>
    </mask>
    <path d="M317.527 77.2471C313.327 77.2471 309.687 76.3471 306.607 74.5471C303.567 72.7071 301.227 70.1671 299.587 66.9271C297.947 63.6471 297.127 59.8671 297.127 55.5871C297.127 51.3071 297.947 47.5271 299.587 44.2471C301.267 40.9671 303.627 38.4071 306.667 36.5671C309.707 34.7271 313.327 33.8071 317.527 33.8071C322.647 33.8071 326.827 35.0671 330.067 37.5871C333.307 40.1071 335.347 43.6671 336.187 48.2671H327.247C326.727 46.0271 325.647 44.2871 324.007 43.0471C322.367 41.7671 320.187 41.1271 317.467 41.1271C314.947 41.1271 312.767 41.7271 310.927 42.9271C309.127 44.0871 307.747 45.7471 306.787 47.9071C305.867 50.0671 305.407 52.6271 305.407 55.5871C305.407 58.5471 305.867 61.1071 306.787 63.2671C307.747 65.3871 309.127 67.0271 310.927 68.1871C312.767 69.3471 314.947 69.9271 317.467 69.9271C320.187 69.9271 322.367 69.3471 324.007 68.1871C325.687 67.0271 326.787 65.3871 327.307 63.2671H336.187C335.387 67.6271 333.347 71.0471 330.067 73.5271C326.827 76.0071 322.647 77.2471 317.527 77.2471ZM367.43 77.2471C363.27 77.2471 359.61 76.3271 356.45 74.4871C353.33 72.6471 350.87 70.1071 349.07 66.8671C347.27 63.5871 346.37 59.8071 346.37 55.5271C346.37 51.2471 347.27 47.4871 349.07 44.2471C350.87 40.9671 353.33 38.4071 356.45 36.5671C359.61 34.7271 363.27 33.8071 367.43 33.8071C371.63 33.8071 375.31 34.7271 378.47 36.5671C381.67 38.4071 384.15 40.9671 385.91 44.2471C387.67 47.4871 388.55 51.2471 388.55 55.5271C388.55 59.8071 387.67 63.5871 385.91 66.8671C384.15 70.1071 381.67 72.6471 378.47 74.4871C375.31 76.3271 371.63 77.2471 367.43 77.2471ZM367.43 69.9871C370.07 69.9871 372.35 69.4071 374.27 68.2471C376.19 67.0471 377.67 65.3671 378.71 63.2071C379.75 61.0471 380.27 58.4871 380.27 55.5271C380.27 52.5271 379.75 49.9671 378.71 47.8471C377.67 45.6871 376.19 44.0271 374.27 42.8671C372.35 41.7071 370.07 41.1271 367.43 41.1271C364.87 41.1271 362.63 41.7071 360.71 42.8671C358.79 44.0271 357.29 45.6871 356.21 47.8471C355.17 49.9671 354.65 52.5271 354.65 55.5271C354.65 58.4871 355.17 61.0471 356.21 63.2071C357.29 65.3671 358.79 67.0471 360.71 68.2471C362.63 69.4071 364.87 69.9871 367.43 69.9871ZM399.376 76.5271V34.5271H415.096C418.456 34.5271 421.236 35.1071 423.436 36.2671C425.676 37.4271 427.336 38.9871 428.416 40.9471C429.496 42.8671 430.036 45.0071 430.036 47.3671C430.036 49.6071 429.496 51.7071 428.416 53.6671C427.376 55.5871 425.736 57.1471 423.496 58.3471C421.296 59.5071 418.456 60.0871 414.976 60.0871H407.476V76.5271H399.376ZM421.156 76.5271L412.516 58.0471H421.276L430.396 76.5271H421.156ZM407.476 54.2071H414.556C417.036 54.2071 418.856 53.6071 420.016 52.4071C421.176 51.2071 421.756 49.6271 421.756 47.6671C421.756 45.7071 421.176 44.1671 420.016 43.0471C418.856 41.8871 417.036 41.3071 414.556 41.3071H407.476V54.2071ZM440.005 76.5271V34.5271H450.025L467.185 65.6671H467.425V34.5271H475.525V76.5271H465.505L448.345 45.4471H448.105V76.5271H440.005ZM486.903 76.5271V34.5271H514.563V41.0671H495.003V52.0471H512.763V58.3471H495.003V69.9871H514.563V76.5271H486.903ZM525.071 76.5271V34.5271H540.791C544.151 34.5271 546.931 35.1071 549.131 36.2671C551.371 37.4271 553.031 38.9871 554.111 40.9471C555.191 42.8671 555.731 45.0071 555.731 47.3671C555.731 49.6071 555.191 51.7071 554.111 53.6671C553.071 55.5871 551.431 57.1471 549.191 58.3471C546.991 59.5071 544.151 60.0871 540.671 60.0871H533.171V76.5271H525.071ZM546.851 76.5271L538.211 58.0471H546.971L556.091 76.5271H546.851ZM533.171 54.2071H540.251C542.731 54.2071 544.551 53.6071 545.711 52.4071C546.871 51.2071 547.451 49.6271 547.451 47.6671C547.451 45.7071 546.871 44.1671 545.711 43.0471C544.551 41.8871 542.731 41.3071 540.251 41.3071H533.171V54.2071Z" fill="#EC831E"/>
    <path d="M306.607 74.5471L306.09 75.4026L306.096 75.4066L306.103 75.4105L306.607 74.5471ZM299.587 66.9271L298.693 67.3743L298.695 67.3787L299.587 66.9271ZM299.587 44.2471L298.697 43.7912L298.693 43.7999L299.587 44.2471ZM306.667 36.5671L306.15 35.7116L306.15 35.7116L306.667 36.5671ZM330.067 37.5871L330.681 36.7977L330.681 36.7977L330.067 37.5871ZM336.187 48.2671V49.2671H337.386L337.171 48.0875L336.187 48.2671ZM327.247 48.2671L326.273 48.4932L326.453 49.2671H327.247V48.2671ZM324.007 43.0471L323.392 43.8354L323.398 43.8401L323.404 43.8448L324.007 43.0471ZM310.927 42.9271L311.469 43.7677L311.474 43.7647L310.927 42.9271ZM306.787 47.9071L305.874 47.501L305.87 47.5081L305.867 47.5152L306.787 47.9071ZM306.787 63.2671L305.867 63.659L305.872 63.6693L305.876 63.6796L306.787 63.2671ZM310.927 68.1871L310.386 69.0277L310.394 69.033L310.927 68.1871ZM324.007 68.1871L323.439 67.3641L323.43 67.3707L324.007 68.1871ZM327.307 63.2671V62.2671H326.523L326.336 63.0289L327.307 63.2671ZM336.187 63.2671L337.171 63.4476L337.388 62.2671H336.187V63.2671ZM330.067 73.5271L329.464 72.7294L329.46 72.733L330.067 73.5271ZM317.527 77.2471V76.2471C313.473 76.2471 310.014 75.3795 307.112 73.6837L306.607 74.5471L306.103 75.4105C309.361 77.3147 313.182 78.2471 317.527 78.2471V77.2471ZM306.607 74.5471L307.125 73.6916C304.249 71.9507 302.037 69.5523 300.48 66.4755L299.587 66.9271L298.695 67.3787C300.418 70.7819 302.886 73.4634 306.09 75.4026L306.607 74.5471ZM299.587 66.9271L300.482 66.4799C298.922 63.3602 298.127 59.7378 298.127 55.5871H297.127H296.127C296.127 59.9964 296.973 63.934 298.693 67.3743L299.587 66.9271ZM297.127 55.5871H298.127C298.127 51.4364 298.922 47.814 300.482 44.6943L299.587 44.2471L298.693 43.7999C296.973 47.2402 296.127 51.1778 296.127 55.5871H297.127ZM299.587 44.2471L300.477 44.703C302.076 41.5817 304.31 39.1628 307.185 37.4226L306.667 36.5671L306.15 35.7116C302.945 37.6514 300.459 40.3525 298.697 43.7912L299.587 44.2471ZM306.667 36.5671L307.185 37.4226C310.043 35.6931 313.476 34.8071 317.527 34.8071V33.8071V32.8071C313.178 32.8071 309.372 33.7611 306.15 35.7116L306.667 36.5671ZM317.527 33.8071V34.8071C322.481 34.8071 326.429 36.0238 329.453 38.3764L330.067 37.5871L330.681 36.7977C327.226 34.1104 322.814 32.8071 317.527 32.8071V33.8071ZM330.067 37.5871L329.453 38.3764C332.472 40.7245 334.401 44.0525 335.204 48.4467L336.187 48.2671L337.171 48.0875C336.294 43.2817 334.142 39.4897 330.681 36.7977L330.067 37.5871ZM336.187 48.2671V47.2671H327.247V48.2671V49.2671H336.187V48.2671ZM327.247 48.2671L328.221 48.041C327.655 45.6017 326.459 43.6475 324.61 42.2494L324.007 43.0471L323.404 43.8448C324.835 44.9267 325.8 46.4525 326.273 48.4932L327.247 48.2671ZM324.007 43.0471L324.623 42.2588C322.759 40.8045 320.341 40.1271 317.467 40.1271V41.1271V42.1271C320.033 42.1271 321.975 42.7297 323.392 43.8354L324.007 43.0471ZM317.467 41.1271V40.1271C314.783 40.1271 312.406 40.7686 310.381 42.0895L310.927 42.9271L311.474 43.7647C313.128 42.6856 315.112 42.1271 317.467 42.1271V41.1271ZM310.927 42.9271L310.386 42.0865C308.405 43.3628 306.904 45.1822 305.874 47.501L306.787 47.9071L307.701 48.3132C308.591 46.312 309.85 44.8114 311.469 43.7677L310.927 42.9271ZM306.787 47.9071L305.867 47.5152C304.883 49.8269 304.407 52.5263 304.407 55.5871H305.407H306.407C306.407 52.7279 306.852 50.3073 307.707 48.299L306.787 47.9071ZM305.407 55.5871H304.407C304.407 58.6479 304.883 61.3473 305.867 63.659L306.787 63.2671L307.707 62.8752C306.852 60.8669 306.407 58.4463 306.407 55.5871H305.407ZM306.787 63.2671L305.876 63.6796C306.909 65.959 308.41 67.7544 310.386 69.0277L310.927 68.1871L311.469 67.3465C309.845 66.2998 308.586 64.8152 307.698 62.8546L306.787 63.2671ZM310.927 68.1871L310.394 69.033C312.418 70.3088 314.789 70.9271 317.467 70.9271V69.9271V68.9271C315.106 68.9271 313.117 68.3854 311.461 67.3412L310.927 68.1871ZM317.467 69.9271V70.9271C320.322 70.9271 322.725 70.3186 324.585 69.0035L324.007 68.1871L323.43 67.3707C322.009 68.3756 320.052 68.9271 317.467 68.9271V69.9271ZM324.007 68.1871L324.576 69.01C326.472 67.7009 327.705 65.8451 328.279 63.5053L327.307 63.2671L326.336 63.0289C325.87 64.9291 324.903 66.3533 323.439 67.3642L324.007 68.1871ZM327.307 63.2671V64.2671H336.187V63.2671V62.2671H327.307V63.2671ZM336.187 63.2671L335.204 63.0866C334.445 67.2215 332.528 70.4127 329.464 72.7294L330.067 73.5271L330.67 74.3248C334.166 71.6815 336.33 68.0327 337.171 63.4476L336.187 63.2671ZM330.067 73.5271L329.46 72.733C326.434 75.0486 322.485 76.2471 317.527 76.2471V77.2471V78.2471C322.81 78.2471 327.22 76.9656 330.675 74.3212L330.067 73.5271ZM356.45 74.4871L355.942 75.3485L355.946 75.3513L356.45 74.4871ZM349.07 66.8671L348.193 67.3482L348.195 67.3527L349.07 66.8671ZM349.07 44.2471L349.944 44.7327L349.946 44.7282L349.07 44.2471ZM356.45 36.5671L355.946 35.7029L355.942 35.7057L356.45 36.5671ZM378.47 36.5671L377.966 37.4313L377.971 37.434L378.47 36.5671ZM385.91 44.2471L385.028 44.7199L385.031 44.7244L385.91 44.2471ZM385.91 66.8671L386.788 67.3444L386.791 67.3399L385.91 66.8671ZM378.47 74.4871L377.971 73.6202L377.966 73.6229L378.47 74.4871ZM374.27 68.2471L374.787 69.103L374.793 69.0991L374.8 69.0951L374.27 68.2471ZM378.71 63.2071L377.809 62.7733L377.809 62.7733L378.71 63.2071ZM378.71 47.8471L377.809 48.2809L377.812 48.2875L378.71 47.8471ZM374.27 42.8671L374.787 42.0112L374.787 42.0112L374.27 42.8671ZM360.71 42.8671L360.192 42.0112L360.192 42.0112L360.71 42.8671ZM356.21 47.8471L355.315 47.3999L355.312 47.4067L356.21 47.8471ZM356.21 63.2071L355.309 63.6409L355.312 63.6476L355.315 63.6543L356.21 63.2071ZM360.71 68.2471L360.18 69.0951L360.186 69.0991L360.192 69.103L360.71 68.2471ZM367.43 77.2471V76.2471C363.422 76.2471 359.94 75.3623 356.953 73.6229L356.45 74.4871L355.946 75.3513C359.279 77.2919 363.118 78.2471 367.43 78.2471V77.2471ZM356.45 74.4871L356.958 73.6257C353.995 71.8783 351.659 69.4697 349.944 66.3815L349.07 66.8671L348.195 67.3527C350.08 70.7445 352.665 73.4159 355.942 75.3485L356.45 74.4871ZM349.07 66.8671L349.946 66.386C348.238 63.2735 347.37 59.6634 347.37 55.5271H346.37H345.37C345.37 59.9508 346.301 63.9007 348.193 67.3482L349.07 66.8671ZM346.37 55.5271H347.37C347.37 51.3905 348.238 47.8026 349.944 44.7327L349.07 44.2471L348.195 43.7615C346.301 47.1716 345.37 51.1037 345.37 55.5271H346.37ZM349.07 44.2471L349.946 44.7282C351.663 41.6003 353.998 39.1741 356.958 37.4285L356.45 36.5671L355.942 35.7057C352.661 37.6401 350.076 40.3338 348.193 43.766L349.07 44.2471ZM356.45 36.5671L356.953 37.4313C359.94 35.6919 363.422 34.8071 367.43 34.8071V33.8071V32.8071C363.118 32.8071 359.279 33.7623 355.946 35.7029L356.45 36.5671ZM367.43 33.8071V34.8071C371.479 34.8071 374.981 35.6928 377.966 37.4313L378.47 36.5671L378.973 35.7029C375.638 33.7614 371.78 32.8071 367.43 32.8071V33.8071ZM378.47 36.5671L377.971 37.434C381.008 39.1801 383.356 41.603 385.028 44.7199L385.91 44.2471L386.791 43.7743C384.943 40.3312 382.331 37.6341 378.968 35.7002L378.47 36.5671ZM385.91 44.2471L385.031 44.7244C386.699 47.7959 387.55 51.3869 387.55 55.5271H388.55H389.55C389.55 51.1073 388.64 47.1783 386.788 43.7698L385.91 44.2471ZM388.55 55.5271H387.55C387.55 59.667 386.699 63.2801 385.028 66.3943L385.91 66.8671L386.791 67.3399C388.64 63.8941 389.55 59.9472 389.55 55.5271H388.55ZM385.91 66.8671L385.031 66.3898C383.359 69.4671 381.011 71.8723 377.971 73.6202L378.47 74.4871L378.968 75.354C382.328 73.4219 384.94 70.7471 386.788 67.3444L385.91 66.8671ZM378.47 74.4871L377.966 73.6229C374.981 75.3614 371.479 76.2471 367.43 76.2471V77.2471V78.2471C371.78 78.2471 375.638 77.2928 378.973 75.3513L378.47 74.4871ZM367.43 69.9871V70.9871C370.219 70.9871 372.685 70.3728 374.787 69.103L374.27 68.2471L373.752 67.3912C372.014 68.4414 369.92 68.9871 367.43 68.9871V69.9871ZM374.27 68.2471L374.8 69.0951C376.889 67.7889 378.494 65.9608 379.611 63.6409L378.71 63.2071L377.809 62.7733C376.846 64.7734 375.49 66.3053 373.74 67.3991L374.27 68.2471ZM378.71 63.2071L379.611 63.6409C380.729 61.3176 381.27 58.6028 381.27 55.5271H380.27H379.27C379.27 58.3714 378.77 60.7766 377.809 62.7733L378.71 63.2071ZM380.27 55.5271H381.27C381.27 52.4145 380.73 49.6957 379.607 47.4067L378.71 47.8471L377.812 48.2875C378.769 50.2385 379.27 52.6397 379.27 55.5271H380.27ZM378.71 47.8471L379.611 47.4133C378.492 45.0909 376.884 43.2786 374.787 42.0112L374.27 42.8671L373.752 43.723C375.495 44.7756 376.847 46.2833 377.809 48.2809L378.71 47.8471ZM374.27 42.8671L374.787 42.0112C372.685 40.7414 370.219 40.1271 367.43 40.1271V41.1271V42.1271C369.92 42.1271 372.014 42.6728 373.752 43.723L374.27 42.8671ZM367.43 41.1271V40.1271C364.714 40.1271 362.289 40.7442 360.192 42.0112L360.71 42.8671L361.227 43.723C362.97 42.67 365.026 42.1271 367.43 42.1271V41.1271ZM360.71 42.8671L360.192 42.0112C358.098 43.2765 356.473 45.0842 355.315 47.3999L356.21 47.8471L357.104 48.2943C358.106 46.29 359.481 44.7777 361.227 43.723L360.71 42.8671ZM356.21 47.8471L355.312 47.4067C354.189 49.6957 353.65 52.4145 353.65 55.5271H354.65H355.65C355.65 52.6397 356.15 50.2385 357.107 48.2875L356.21 47.8471ZM354.65 55.5271H353.65C353.65 58.6028 354.19 61.3176 355.309 63.6409L356.21 63.2071L357.111 62.7733C356.149 60.7766 355.65 58.3714 355.65 55.5271H354.65ZM356.21 63.2071L355.315 63.6543C356.472 65.9675 358.093 67.791 360.18 69.0951L360.71 68.2471L361.24 67.3991C359.486 66.3032 358.107 64.7667 357.104 62.7599L356.21 63.2071ZM360.71 68.2471L360.192 69.103C362.289 70.37 364.714 70.9871 367.43 70.9871V69.9871V68.9871C365.026 68.9871 362.97 68.4442 361.227 67.3912L360.71 68.2471ZM399.376 76.5271H398.376V77.5271H399.376V76.5271ZM399.376 34.5271V33.5271H398.376V34.5271H399.376ZM423.436 36.2671L422.969 37.1517L422.976 37.1551L423.436 36.2671ZM428.416 40.9471L427.54 41.4297L427.544 41.4374L428.416 40.9471ZM428.416 53.6671L427.54 53.1845L427.536 53.1908L428.416 53.6671ZM423.496 58.3471L423.962 59.2317L423.968 59.2286L423.496 58.3471ZM407.476 60.0871V59.0871H406.476V60.0871H407.476ZM407.476 76.5271V77.5271H408.476V76.5271H407.476ZM421.156 76.5271L420.25 76.9506L420.519 77.5271H421.156V76.5271ZM412.516 58.0471V57.0471H410.944L411.61 58.4706L412.516 58.0471ZM421.276 58.0471L422.173 57.6045L421.897 57.0471H421.276V58.0471ZM430.396 76.5271V77.5271H432.004L431.293 76.0846L430.396 76.5271ZM407.476 54.2071H406.476V55.2071H407.476V54.2071ZM420.016 52.4071L420.735 53.1021L420.735 53.1021L420.016 52.4071ZM420.016 43.0471L419.309 43.7542L419.315 43.7604L419.321 43.7665L420.016 43.0471ZM407.476 41.3071V40.3071H406.476V41.3071H407.476ZM399.376 76.5271H400.376V34.5271H399.376H398.376V76.5271H399.376ZM399.376 34.5271V35.5271H415.096V34.5271V33.5271H399.376V34.5271ZM415.096 34.5271V35.5271C418.348 35.5271 420.955 36.0894 422.969 37.1517L423.436 36.2671L423.902 35.3825C421.517 34.1248 418.564 33.5271 415.096 33.5271V34.5271ZM423.436 36.2671L422.976 37.1551C425.063 38.2361 426.567 39.6645 427.54 41.4297L428.416 40.9471L429.292 40.4645C428.104 38.3097 426.288 36.6181 423.896 35.3791L423.436 36.2671ZM428.416 40.9471L427.544 41.4374C428.534 43.197 429.036 45.1662 429.036 47.3671H430.036H431.036C431.036 44.848 430.458 42.5372 429.287 40.4568L428.416 40.9471ZM430.036 47.3671H429.036C429.036 49.4385 428.538 51.3725 427.54 53.1845L428.416 53.6671L429.292 54.1497C430.453 52.0417 431.036 49.7757 431.036 47.3671H430.036ZM428.416 53.6671L427.536 53.1908C426.604 54.9121 425.12 56.3425 423.024 57.4656L423.496 58.3471L423.968 59.2286C426.352 57.9517 428.147 56.2621 429.295 54.1434L428.416 53.6671ZM423.496 58.3471L423.029 57.4625C421.019 58.5226 418.354 59.0871 414.976 59.0871V60.0871V61.0871C418.557 61.0871 421.573 60.4916 423.962 59.2317L423.496 58.3471ZM414.976 60.0871V59.0871H407.476V60.0871V61.0871H414.976V60.0871ZM407.476 60.0871H406.476V76.5271H407.476H408.476V60.0871H407.476ZM407.476 76.5271V75.5271H399.376V76.5271V77.5271H407.476V76.5271ZM421.156 76.5271L422.062 76.1036L413.422 57.6236L412.516 58.0471L411.61 58.4706L420.25 76.9506L421.156 76.5271ZM412.516 58.0471V59.0471H421.276V58.0471V57.0471H412.516V58.0471ZM421.276 58.0471L420.379 58.4896L429.499 76.9696L430.396 76.5271L431.293 76.0846L422.173 57.6045L421.276 58.0471ZM430.396 76.5271V75.5271H421.156V76.5271V77.5271H430.396V76.5271ZM407.476 54.2071V55.2071H414.556V54.2071V53.2071H407.476V54.2071ZM414.556 54.2071V55.2071C417.176 55.2071 419.311 54.5747 420.735 53.1021L420.016 52.4071L419.297 51.7121C418.4 52.6395 416.896 53.2071 414.556 53.2071V54.2071ZM420.016 52.4071L420.735 53.1021C422.106 51.6835 422.756 49.838 422.756 47.6671H421.756H420.756C420.756 49.4162 420.245 50.7307 419.297 51.7121L420.016 52.4071ZM421.756 47.6671H422.756C422.756 45.4985 422.106 43.6756 420.71 42.3277L420.016 43.0471L419.321 43.7665C420.245 44.6586 420.756 45.9157 420.756 47.6671H421.756ZM420.016 43.0471L420.723 42.34C419.298 40.9154 417.167 40.3071 414.556 40.3071V41.3071V42.3071C416.904 42.3071 418.413 42.8588 419.309 43.7542L420.016 43.0471ZM414.556 41.3071V40.3071H407.476V41.3071V42.3071H414.556V41.3071ZM407.476 41.3071H406.476V54.2071H407.476H408.476V41.3071H407.476ZM440.005 76.5271H439.005V77.5271H440.005V76.5271ZM440.005 34.5271V33.5271H439.005V34.5271H440.005ZM450.025 34.5271L450.901 34.0445L450.615 33.5271H450.025V34.5271ZM467.185 65.6671L466.309 66.1497L466.594 66.6671H467.185V65.6671ZM467.425 65.6671V66.6671H468.425V65.6671H467.425ZM467.425 34.5271V33.5271H466.425V34.5271H467.425ZM475.525 34.5271H476.525V33.5271H475.525V34.5271ZM475.525 76.5271V77.5271H476.525V76.5271H475.525ZM465.505 76.5271L464.629 77.0104L464.915 77.5271H465.505V76.5271ZM448.345 45.4471L449.22 44.9638L448.935 44.4471H448.345V45.4471ZM448.105 45.4471V44.4471H447.105V45.4471H448.105ZM448.105 76.5271V77.5271H449.105V76.5271H448.105ZM440.005 76.5271H441.005V34.5271H440.005H439.005V76.5271H440.005ZM440.005 34.5271V35.5271H450.025V34.5271V33.5271H440.005V34.5271ZM450.025 34.5271L449.149 35.0097L466.309 66.1497L467.185 65.6671L468.061 65.1845L450.901 34.0445L450.025 34.5271ZM467.185 65.6671V66.6671H467.425V65.6671V64.6671H467.185V65.6671ZM467.425 65.6671H468.425V34.5271H467.425H466.425V65.6671H467.425ZM467.425 34.5271V35.5271H475.525V34.5271V33.5271H467.425V34.5271ZM475.525 34.5271H474.525V76.5271H475.525H476.525V34.5271H475.525ZM475.525 76.5271V75.5271H465.505V76.5271V77.5271H475.525V76.5271ZM465.505 76.5271L466.38 76.0438L449.22 44.9638L448.345 45.4471L447.469 45.9304L464.629 77.0104L465.505 76.5271ZM448.345 45.4471V44.4471H448.105V45.4471V46.4471H448.345V45.4471ZM448.105 45.4471H447.105V76.5271H448.105H449.105V45.4471H448.105ZM448.105 76.5271V75.5271H440.005V76.5271V77.5271H448.105V76.5271ZM486.903 76.5271H485.903V77.5271H486.903V76.5271ZM486.903 34.5271V33.5271H485.903V34.5271H486.903ZM514.563 34.5271H515.563V33.5271H514.563V34.5271ZM514.563 41.0671V42.0671H515.563V41.0671H514.563ZM495.003 41.0671V40.0671H494.003V41.0671H495.003ZM495.003 52.0471H494.003V53.0471H495.003V52.0471ZM512.763 52.0471H513.763V51.0471H512.763V52.0471ZM512.763 58.3471V59.3471H513.763V58.3471H512.763ZM495.003 58.3471V57.3471H494.003V58.3471H495.003ZM495.003 69.9871H494.003V70.9871H495.003V69.9871ZM514.563 69.9871H515.563V68.9871H514.563V69.9871ZM514.563 76.5271V77.5271H515.563V76.5271H514.563ZM486.903 76.5271H487.903V34.5271H486.903H485.903V76.5271H486.903ZM486.903 34.5271V35.5271H514.563V34.5271V33.5271H486.903V34.5271ZM514.563 34.5271H513.563V41.0671H514.563H515.563V34.5271H514.563ZM514.563 41.0671V40.0671H495.003V41.0671V42.0671H514.563V41.0671ZM495.003 41.0671H494.003V52.0471H495.003H496.003V41.0671H495.003ZM495.003 52.0471V53.0471H512.763V52.0471V51.0471H495.003V52.0471ZM512.763 52.0471H511.763V58.3471H512.763H513.763V52.0471H512.763ZM512.763 58.3471V57.3471H495.003V58.3471V59.3471H512.763V58.3471ZM495.003 58.3471H494.003V69.9871H495.003H496.003V58.3471H495.003ZM495.003 69.9871V70.9871H514.563V69.9871V68.9871H495.003V69.9871ZM514.563 69.9871H513.563V76.5271H514.563H515.563V69.9871H514.563ZM514.563 76.5271V75.5271H486.903V76.5271V77.5271H514.563V76.5271ZM525.071 76.5271H524.071V77.5271H525.071V76.5271ZM525.071 34.5271V33.5271H524.071V34.5271H525.071ZM549.131 36.2671L548.665 37.1517L548.671 37.1551L549.131 36.2671ZM554.111 40.9471L553.235 41.4297L553.24 41.4374L554.111 40.9471ZM554.111 53.6671L553.235 53.1845L553.232 53.1908L554.111 53.6671ZM549.191 58.3471L549.658 59.2317L549.663 59.2286L549.191 58.3471ZM533.171 60.0871V59.0871H532.171V60.0871H533.171ZM533.171 76.5271V77.5271H534.171V76.5271H533.171ZM546.851 76.5271L545.945 76.9506L546.215 77.5271H546.851V76.5271ZM538.211 58.0471V57.0471H536.64L537.305 58.4706L538.211 58.0471ZM546.971 58.0471L547.868 57.6045L547.593 57.0471H546.971V58.0471ZM556.091 76.5271V77.5271H557.7L556.988 76.0846L556.091 76.5271ZM533.171 54.2071H532.171V55.2071H533.171V54.2071ZM545.711 52.4071L546.43 53.1021L546.43 53.1021L545.711 52.4071ZM545.711 43.0471L545.004 43.7542L545.01 43.7604L545.017 43.7665L545.711 43.0471ZM533.171 41.3071V40.3071H532.171V41.3071H533.171ZM525.071 76.5271H526.071V34.5271H525.071H524.071V76.5271H525.071ZM525.071 34.5271V35.5271H540.791V34.5271V33.5271H525.071V34.5271ZM540.791 34.5271V35.5271C544.043 35.5271 546.65 36.0894 548.665 37.1517L549.131 36.2671L549.598 35.3825C547.212 34.1248 544.259 33.5271 540.791 33.5271V34.5271ZM549.131 36.2671L548.671 37.1551C550.759 38.2361 552.263 39.6645 553.235 41.4297L554.111 40.9471L554.987 40.4645C553.8 38.3097 551.984 36.6181 549.591 35.3791L549.131 36.2671ZM554.111 40.9471L553.24 41.4374C554.229 43.197 554.731 45.1662 554.731 47.3671H555.731H556.731C556.731 44.848 556.153 42.5372 554.983 40.4568L554.111 40.9471ZM555.731 47.3671H554.731C554.731 49.4385 554.234 51.3725 553.235 53.1845L554.111 53.6671L554.987 54.1497C556.148 52.0417 556.731 49.7757 556.731 47.3671H555.731ZM554.111 53.6671L553.232 53.1908C552.299 54.9121 550.815 56.3425 548.719 57.4656L549.191 58.3471L549.663 59.2286C552.047 57.9517 553.843 56.2621 554.99 54.1434L554.111 53.6671ZM549.191 58.3471L548.725 57.4625C546.714 58.5226 544.05 59.0871 540.671 59.0871V60.0871V61.0871C544.252 61.0871 547.268 60.4916 549.658 59.2317L549.191 58.3471ZM540.671 60.0871V59.0871H533.171V60.0871V61.0871H540.671V60.0871ZM533.171 60.0871H532.171V76.5271H533.171H534.171V60.0871H533.171ZM533.171 76.5271V75.5271H525.071V76.5271V77.5271H533.171V76.5271ZM546.851 76.5271L547.757 76.1036L539.117 57.6236L538.211 58.0471L537.305 58.4706L545.945 76.9506L546.851 76.5271ZM538.211 58.0471V59.0471H546.971V58.0471V57.0471H538.211V58.0471ZM546.971 58.0471L546.074 58.4896L555.194 76.9696L556.091 76.5271L556.988 76.0846L547.868 57.6045L546.971 58.0471ZM556.091 76.5271V75.5271H546.851V76.5271V77.5271H556.091V76.5271ZM533.171 54.2071V55.2071H540.251V54.2071V53.2071H533.171V54.2071ZM540.251 54.2071V55.2071C542.871 55.2071 545.007 54.5747 546.43 53.1021L545.711 52.4071L544.992 51.7121C544.096 52.6395 542.591 53.2071 540.251 53.2071V54.2071ZM545.711 52.4071L546.43 53.1021C547.801 51.6835 548.451 49.838 548.451 47.6671H547.451H546.451C546.451 49.4162 545.941 50.7307 544.992 51.7121L545.711 52.4071ZM547.451 47.6671H548.451C548.451 45.4985 547.802 43.6756 546.406 42.3277L545.711 43.0471L545.017 43.7665C545.94 44.6586 546.451 45.9157 546.451 47.6671H547.451ZM545.711 43.0471L546.418 42.34C544.994 40.9154 542.863 40.3071 540.251 40.3071V41.3071V42.3071C542.6 42.3071 544.109 42.8588 545.004 43.7542L545.711 43.0471ZM540.251 41.3071V40.3071H533.171V41.3071V42.3071H540.251V41.3071ZM533.171 41.3071H532.171V54.2071H533.171H534.171V41.3071H533.171Z" fill="#EC831E" mask="url(#path-4-outside-2_807_2232)"/>
</svg>
